<svg width="61" height="60" viewBox="0 0 61 60" fill="none" xmlns="http://www.w3.org/2000/svg">
<path fill-rule="evenodd" clip-rule="evenodd" d="M1.9487 4.43944C1.35499 4.62658 0.342369 5.67513 0.160312 6.29134C-0.0534375 7.01472 -0.0534375 51.8705 0.160312 52.5939C0.356643 53.2584 1.35874 54.2605 2.02322 54.4568C2.40777 54.5704 8.78652 54.6039 30.036 54.6039C61.0607 54.6039 58.2501 54.6971 59.2026 53.6376C59.4903 53.3177 59.7903 52.84 59.8694 52.576C60.0772 51.8823 60.0772 7.00299 59.8694 6.30924C59.7903 6.04529 59.4903 5.56759 59.2026 5.24763C58.2496 4.18759 61.0736 4.27976 29.9614 4.29367C10.2164 4.3025 2.25172 4.344 1.9487 4.43944ZM57.7808 6.5138C58.0777 6.81065 58.0777 6.81101 58.0777 9.41702V12.0233H30.0132H1.9487V9.41702C1.9487 6.81101 1.9487 6.81065 2.24568 6.5138L2.54253 6.21682H30.0132H57.4839L57.7808 6.5138ZM3.88418 9.12005C3.88418 9.65451 4.31746 10.0878 4.85193 10.0878H11.6261H18.4003C18.9348 10.0878 19.3681 9.65451 19.3681 9.12005C19.3681 8.58558 18.9348 8.1523 18.4003 8.1523H11.6261H4.85192C4.31746 8.1523 3.88418 8.58558 3.88418 9.12005ZM46.4648 9.12005C46.4648 9.65451 46.8981 10.0878 47.4326 10.0878C47.967 10.0878 48.4003 9.65451 48.4003 9.12005C48.4003 8.58558 47.967 8.1523 47.4326 8.1523C46.8981 8.1523 46.4648 8.58558 46.4648 9.12005ZM50.3358 9.12005C50.3358 9.65451 50.7691 10.0878 51.3035 10.0878C51.838 10.0878 52.2713 9.65451 52.2713 9.12005C52.2713 8.58558 51.838 8.1523 51.3035 8.1523C50.7691 8.1523 50.3358 8.58558 50.3358 9.12005ZM54.2068 9.12005C54.2068 9.65451 54.64 10.0878 55.1745 10.0878C55.709 10.0878 56.1423 9.65451 56.1423 9.12005C56.1423 8.58558 55.709 8.1523 55.1745 8.1523C54.64 8.1523 54.2068 8.58558 54.2068 9.12005ZM58.0777 33.0166V52.0746L57.7808 52.3715L57.4839 52.6684H30.0132H2.54253L2.24568 52.3715L1.9487 52.0746V33.0166V13.9588H30.0132H58.0777V33.0166ZM22.6257 24.996C18.729 27.3418 15.4215 29.3428 15.2757 29.4426C15.1269 29.5445 15.0834 29.7447 15.1764 29.8992L15.4978 30.4327C15.7674 30.8801 16.3475 31.0261 16.7967 30.7594L17.1623 30.5423L18.3398 29.8433L18.4003 37.6376L18.4608 45.4318L18.7464 45.6631C19.0228 45.8869 19.3821 45.8942 30.0132 45.8942C40.6443 45.8942 41.0036 45.8869 41.28 45.6631L41.5656 45.4318L41.6261 37.6274L41.6866 29.8232L42.8588 30.5329L43.4696 30.9028C43.778 31.0895 44.1796 30.987 44.3607 30.6753C44.542 30.3633 44.7661 29.9902 44.8587 29.8464C45.0229 29.5915 44.8419 29.4737 37.732 25.2069C33.7197 22.7991 30.2735 20.8069 30.0738 20.7798C29.7698 20.7388 28.5582 21.4245 22.6257 24.996ZM34.9223 25.7704L39.6906 28.6306V36.2946V43.9588H36.7874H33.8842V40.3848V36.8106L33.5872 36.5138L33.2904 36.2168H30.0132H26.7361L26.4392 36.5138L26.1423 36.8106V40.3848V43.9588H23.239H20.3358V36.3073V28.6559L25.0838 25.7933C27.6952 24.2189 29.9042 22.9261 29.9929 22.9205C30.0814 22.915 32.2998 24.1975 34.9223 25.7704ZM31.9487 41.0555V43.9588H30.0132H28.0777V41.0555V38.1523H30.0132H31.9487V41.0555Z" fill="#33C4F2"/>
</svg>
