<svg width="61" height="60" viewBox="0 0 61 60" fill="none" xmlns="http://www.w3.org/2000/svg">
<path fill-rule="evenodd" clip-rule="evenodd" d="M1.9487 4.43944C1.35499 4.62658 0.342369 5.67513 0.160312 6.29134C-0.0534375 7.01472 -0.0534375 51.8705 0.160312 52.5939C0.356643 53.2584 1.35874 54.2605 2.02322 54.4568C2.40777 54.5704 8.78652 54.6039 30.036 54.6039C61.0607 54.6039 58.2501 54.6971 59.2026 53.6376C59.4903 53.3177 59.7903 52.84 59.8694 52.576C60.0772 51.8823 60.0772 7.00299 59.8694 6.30924C59.7903 6.04529 59.4903 5.56759 59.2026 5.24763C58.2496 4.18759 61.0736 4.27976 29.9614 4.29367C10.2164 4.3025 2.25172 4.344 1.9487 4.43944ZM57.7808 6.5138C58.0777 6.81065 58.0777 6.81101 58.0777 9.41702V12.0233H30.0132H1.9487V9.41702C1.9487 6.81101 1.9487 6.81065 2.24568 6.5138L2.54253 6.21682H30.0132H57.4839L57.7808 6.5138ZM3.88418 9.12005C3.88418 9.65451 4.31746 10.0878 4.85193 10.0878H11.6261H18.4003C18.9348 10.0878 19.3681 9.65451 19.3681 9.12005C19.3681 8.58558 18.9348 8.1523 18.4003 8.1523H11.6261H4.85192C4.31746 8.1523 3.88418 8.58558 3.88418 9.12005ZM46.4648 9.12005C46.4648 9.65451 46.8981 10.0878 47.4326 10.0878C47.967 10.0878 48.4003 9.65451 48.4003 9.12005C48.4003 8.58558 47.967 8.1523 47.4326 8.1523C46.8981 8.1523 46.4648 8.58558 46.4648 9.12005ZM50.3358 9.12005C50.3358 9.65451 50.7691 10.0878 51.3035 10.0878C51.838 10.0878 52.2713 9.65451 52.2713 9.12005C52.2713 8.58558 51.838 8.1523 51.3035 8.1523C50.7691 8.1523 50.3358 8.58558 50.3358 9.12005ZM54.2068 9.12005C54.2068 9.65451 54.64 10.0878 55.1745 10.0878C55.709 10.0878 56.1423 9.65451 56.1423 9.12005C56.1423 8.58558 55.709 8.1523 55.1745 8.1523C54.64 8.1523 54.2068 8.58558 54.2068 9.12005ZM58.0777 33.0166V52.0746L57.7808 52.3715L57.4839 52.6684H30.0132H2.54253L2.24568 52.3715L1.9487 52.0746V33.0166V13.9588H30.0132H58.0777V33.0166ZM27.8358 19.9439C26.423 20.1836 25.2852 20.5661 23.8733 21.2762C17.2362 24.614 14.5789 32.7159 17.9313 39.393C19.2168 41.9535 21.2353 44.0048 23.7312 45.2875C28.8497 47.9179 34.6832 47.1948 39.0545 43.388C40.6466 42.0015 42.1931 39.6332 42.878 37.5325C44.9215 31.2645 42.1391 24.3936 36.3312 21.3662C33.6641 19.9758 30.6358 19.4688 27.8358 19.9439ZM32.8556 22.0669C35.0467 22.6504 36.5356 23.5128 38.1754 25.1483C39.82 26.7885 40.6647 28.2527 41.2843 30.537C41.6709 31.9624 41.6733 34.5945 41.2895 36.0668C40.7299 38.2132 39.7425 39.9431 38.1927 41.4931C36.6427 43.0429 34.9128 44.0302 32.7664 44.5898C31.2941 44.9737 28.662 44.9713 27.2366 44.5846C24.9523 43.965 23.4881 43.1203 21.8479 41.4758C19.6712 39.2934 18.6045 36.9071 18.4424 33.8579C18.2664 30.5468 19.4381 27.5377 21.8377 25.1381C23.5725 23.4033 25.5856 22.3294 27.9439 21.8804C29.2217 21.6372 31.5779 21.7267 32.8556 22.0669ZM26.9231 25.8686C26.6333 26.1584 26.6261 26.2107 26.6261 28.0461V29.9265H24.7457C22.9104 29.9265 22.858 29.9336 22.5683 30.2235L22.2713 30.5203V33.3136V36.1069L22.5683 36.4037C22.858 36.6936 22.9104 36.7007 24.7457 36.7007H26.6261V38.5811C26.6261 40.4165 26.6333 40.4688 26.9231 40.7586L27.2199 41.0555H30.0132H32.8065L33.1033 40.7586C33.3932 40.4688 33.4003 40.4165 33.4003 38.5811V36.7007H35.2808C37.1161 36.7007 37.1685 36.6936 37.4582 36.4037L37.7552 36.1069V33.3136V30.5203L37.4582 30.2235C37.1685 29.9336 37.1161 29.9265 35.2808 29.9265H33.4003V28.0461C33.4003 26.2107 33.3932 26.1584 33.1033 25.8686L32.8065 25.5717H30.0132H27.2199L26.9231 25.8686ZM31.4648 29.3876C31.4648 31.2229 31.472 31.2753 31.7618 31.565C32.0515 31.8548 32.1039 31.862 33.9392 31.862H35.8197V33.3136V34.7652H33.9392C32.1039 34.7652 32.0515 34.7723 31.7618 35.0622C31.472 35.3519 31.4648 35.4043 31.4648 37.2396V39.12H30.0132H28.5616V37.2396C28.5616 35.4043 28.5545 35.3519 28.2646 35.0622C27.9749 34.7723 27.9225 34.7652 26.0872 34.7652H24.2068V33.3136V31.862H26.0872C27.9225 31.862 27.9749 31.8548 28.2646 31.565C28.5545 31.2753 28.5616 31.2229 28.5616 29.3876V27.5071H30.0132H31.4648V29.3876Z" fill="#33C4F2"/>
</svg>
