<svg width="61" height="60" viewBox="0 0 61 60" fill="none" xmlns="http://www.w3.org/2000/svg">
<path fill-rule="evenodd" clip-rule="evenodd" d="M1.9487 4.43944C1.35499 4.62658 0.342369 5.67513 0.160312 6.29134C-0.0534375 7.01472 -0.0534375 51.8705 0.160312 52.5939C0.356643 53.2584 1.35874 54.2605 2.02322 54.4568C2.40777 54.5704 8.78652 54.6039 30.036 54.6039C61.0607 54.6039 58.2501 54.6971 59.2026 53.6376C59.4903 53.3177 59.7903 52.84 59.8694 52.576C60.0772 51.8823 60.0772 7.00299 59.8694 6.30924C59.7903 6.04529 59.4903 5.56759 59.2026 5.24763C58.2496 4.18759 61.0736 4.27976 29.9614 4.29367C10.2164 4.3025 2.25172 4.344 1.9487 4.43944ZM57.7808 6.5138C58.0777 6.81065 58.0777 6.81101 58.0777 9.41702V12.0233H30.0132H1.9487V9.41702C1.9487 6.81101 1.9487 6.81065 2.24568 6.5138L2.54253 6.21682H30.0132H57.4839L57.7808 6.5138ZM3.88418 9.12005C3.88418 9.65451 4.31746 10.0878 4.85193 10.0878H11.6261H18.4003C18.9348 10.0878 19.3681 9.65451 19.3681 9.12005C19.3681 8.58558 18.9348 8.1523 18.4003 8.1523H11.6261H4.85192C4.31746 8.1523 3.88418 8.58558 3.88418 9.12005ZM46.4648 9.12005C46.4648 9.65451 46.8981 10.0878 47.4326 10.0878C47.967 10.0878 48.4003 9.65451 48.4003 9.12005C48.4003 8.58558 47.967 8.1523 47.4326 8.1523C46.8981 8.1523 46.4648 8.58558 46.4648 9.12005ZM50.3358 9.12005C50.3358 9.65451 50.7691 10.0878 51.3035 10.0878C51.838 10.0878 52.2713 9.65451 52.2713 9.12005C52.2713 8.58558 51.838 8.1523 51.3035 8.1523C50.7691 8.1523 50.3358 8.58558 50.3358 9.12005ZM54.2068 9.12005C54.2068 9.65451 54.64 10.0878 55.1745 10.0878C55.709 10.0878 56.1423 9.65451 56.1423 9.12005C56.1423 8.58558 55.709 8.1523 55.1745 8.1523C54.64 8.1523 54.2068 8.58558 54.2068 9.12005ZM58.0777 33.0166V52.0746L57.7808 52.3715L57.4839 52.6684H30.0132H2.54253L2.24568 52.3715L1.9487 52.0746V33.0166V13.9588H30.0132H58.0777V33.0166ZM18.4003 21.6971C18.4003 22.2329 18.8284 22.6706 19.3642 22.6825L19.9345 22.695L21.4688 22.7289L22.7012 29.745C23.3791 33.6039 24.0016 37.1647 24.0845 37.6579C24.1925 38.3005 24.3154 38.6348 24.5179 38.8373L24.8006 39.12H31.8906C36.492 39.12 39.0618 39.0766 39.212 38.9963C39.3391 38.9282 39.4981 38.7701 39.5651 38.6449C39.6321 38.5196 40.2902 36.2209 41.0275 33.5368C42.4766 28.2608 42.5048 28.0706 41.9463 27.3382C41.311 26.5053 41.7161 26.5394 32.4597 26.5394H24.116L24.054 26.2067C24.0199 26.0238 23.8116 24.8399 23.591 23.5761C23.0594 20.5282 23.2804 20.7329 20.5227 20.7329H19.3644C18.832 20.7329 18.4003 21.1646 18.4003 21.6971ZM40.2955 28.61C40.2955 28.7259 38.697 34.6718 38.1609 36.5506L37.9793 37.1869L31.9783 37.1554L25.9774 37.1241L25.2164 32.8297C24.7977 30.4678 24.4538 28.5217 24.452 28.5051C24.4502 28.4886 28.0142 28.4749 32.3721 28.4749C38.1273 28.4749 40.2955 28.5119 40.2955 28.61ZM15.4971 30.4104C15.4971 30.9448 15.9304 31.3781 16.4648 31.3781H17.9164H19.3681C19.9025 31.3781 20.3358 30.9448 20.3358 30.4104C20.3358 29.8759 19.9025 29.4426 19.3681 29.4426H17.9164H16.4648C15.9304 29.4426 15.4971 29.8759 15.4971 30.4104ZM17.4326 35.2491C17.4326 35.7835 17.8658 36.2168 18.4003 36.2168H19.3681H20.3358C20.8703 36.2168 21.3035 35.7835 21.3035 35.2491C21.3035 34.7146 20.8703 34.2813 20.3358 34.2813H19.3681H18.4003C17.8658 34.2813 17.4326 34.7146 17.4326 35.2491ZM27.11 40.2459C26.5163 40.433 25.5037 41.4816 25.3216 42.0978C24.9865 43.232 25.2228 44.1362 26.0777 44.9911C26.7041 45.6176 27.3168 45.8942 28.0777 45.8942C28.8386 45.8942 29.4513 45.6176 30.0778 44.9911C31.2599 43.809 31.2952 42.3052 30.1704 41.0541C29.3875 40.1834 28.2564 39.8846 27.11 40.2459ZM34.8519 40.2459C34.2582 40.433 33.2456 41.4816 33.0635 42.0978C32.7285 43.232 32.9647 44.1362 33.8196 44.9911C34.4461 45.6176 35.0588 45.8942 35.8197 45.8942C36.5806 45.8942 37.1933 45.6176 37.8197 44.9911C39.0018 43.809 39.0372 42.3052 37.9123 41.0541C37.1294 40.1834 35.9983 39.8846 34.8519 40.2459ZM28.7485 42.3202C29.3486 42.9202 28.9234 43.9588 28.0777 43.9588C27.5804 43.9588 27.11 43.4883 27.11 42.991C27.11 42.4937 27.5804 42.0233 28.0777 42.0233C28.3134 42.0233 28.5614 42.133 28.7485 42.3202ZM36.4904 42.3202C36.6777 42.5074 36.7874 42.7554 36.7874 42.991C36.7874 43.2267 36.6777 43.4746 36.4904 43.6618C36.3033 43.849 36.0553 43.9588 35.8197 43.9588C35.584 43.9588 35.336 43.849 35.1489 43.6618C34.9616 43.4746 34.8519 43.2267 34.8519 42.991C34.8519 42.7554 34.9616 42.5074 35.1489 42.3202C35.336 42.133 35.584 42.0233 35.8197 42.0233C36.0553 42.0233 36.3033 42.133 36.4904 42.3202Z" fill="#33C4F2"/>
</svg>
