<svg width="60" height="60" viewBox="0 0 60 60" fill="none" xmlns="http://www.w3.org/2000/svg">
<g clip-path="url(#clip0_2_122)">
<path fill-rule="evenodd" clip-rule="evenodd" d="M1.9487 4.43944C1.35499 4.62658 0.342369 5.67513 0.160313 6.29134C-0.0534375 7.01472 -0.0534375 51.8705 0.160313 52.5939C0.356643 53.2584 1.35874 54.2605 2.02322 54.4568C2.40777 54.5704 8.78652 54.6039 30.036 54.6039C61.0607 54.6039 58.2501 54.6971 59.2026 53.6376C59.4903 53.3177 59.7903 52.84 59.8694 52.576C60.0772 51.8823 60.0772 7.00299 59.8694 6.30924C59.7903 6.04529 59.4903 5.56759 59.2026 5.24763C58.2496 4.18759 61.0736 4.27976 29.9614 4.29367C10.2164 4.3025 2.25172 4.344 1.9487 4.43944ZM57.7808 6.5138C58.0777 6.81065 58.0777 6.81101 58.0777 9.41702V12.0233H30.0132H1.9487V9.41702C1.9487 6.81101 1.9487 6.81065 2.24568 6.5138L2.54253 6.21682H30.0132H57.4839L57.7808 6.5138ZM3.88418 9.12005C3.88418 9.65451 4.31746 10.0878 4.85193 10.0878H11.6261H18.4003C18.9348 10.0878 19.3681 9.65451 19.3681 9.12005C19.3681 8.58558 18.9348 8.1523 18.4003 8.1523H11.6261H4.85192C4.31746 8.1523 3.88418 8.58558 3.88418 9.12005ZM46.4648 9.12005C46.4648 9.65451 46.8981 10.0878 47.4326 10.0878C47.967 10.0878 48.4003 9.65451 48.4003 9.12005C48.4003 8.58558 47.967 8.1523 47.4326 8.1523C46.8981 8.1523 46.4648 8.58558 46.4648 9.12005ZM50.3358 9.12005C50.3358 9.65451 50.7691 10.0878 51.3035 10.0878C51.838 10.0878 52.2713 9.65451 52.2713 9.12005C52.2713 8.58558 51.838 8.1523 51.3035 8.1523C50.7691 8.1523 50.3358 8.58558 50.3358 9.12005ZM54.2068 9.12005C54.2068 9.65451 54.64 10.0878 55.1745 10.0878C55.709 10.0878 56.1423 9.65451 56.1423 9.12005C56.1423 8.58558 55.709 8.1523 55.1745 8.1523C54.64 8.1523 54.2068 8.58558 54.2068 9.12005ZM58.0777 33.0166V52.0746L57.7808 52.3715L57.4839 52.6684H30.0132H2.54253L2.24568 52.3715L1.9487 52.0746V33.0166V13.9588H30.0132H58.0777V33.0166Z" fill="#33C4F2"/>
<path fill-rule="evenodd" clip-rule="evenodd" d="M28.5532 20.4162C25.8115 20.7549 23.2708 21.9914 21.3315 23.9307C19.2674 25.9948 17.993 28.7536 17.7589 31.6643L17.72 32.1483L17.3973 32.3475C16.749 32.7476 16.2416 33.4683 16.0837 34.2134C15.9713 34.7438 15.9724 38.1085 16.0853 38.6409C16.3127 39.7141 17.2298 40.6433 18.2762 40.8605C19.2746 41.0677 20.7166 40.7211 20.7166 39.6026C20.7166 38.4841 20.7166 36.4233 20.7166 36.4233C20.7166 36.4233 20.7166 33.8547 20.7166 33.2441C20.7166 32.6335 20.0309 32.2787 19.7553 32.1362C19.6644 32.0891 19.4722 32.021 19.3283 31.9848L19.0665 31.9189L19.0997 31.6612C19.3263 29.9005 19.5838 29.0083 20.2486 27.681C21.8027 24.5781 24.774 22.3967 28.2497 21.8069C28.9682 21.685 30.3598 21.6434 31.0911 21.7221C34.4479 22.0829 37.3446 23.8457 39.1638 26.6345C40.0382 27.9749 40.63 29.5472 40.8224 31.0409C40.9506 32.0359 40.97 31.9114 40.6759 31.9855C40.5335 32.0214 40.3425 32.0891 40.2516 32.1362C39.976 32.2787 39.5957 32.6654 39.4387 32.9629L39.2903 33.2441V36.4233V39.6026L39.4387 39.8837C39.5957 40.1813 39.976 40.568 40.2516 40.7105C40.3425 40.7575 40.5336 40.8254 40.6763 40.8613L40.9357 40.9266V41.7729C40.9357 42.7067 40.8672 43.0857 40.6132 43.5564C40.3955 43.9598 39.9045 44.4389 39.4991 44.6436C38.9343 44.9287 38.5874 44.9834 37.3381 44.9841L36.2226 44.9848L36.0608 44.6751C35.8615 44.2939 35.431 43.9078 35.0234 43.7448C34.7349 43.6294 34.6301 43.6221 33.2664 43.6221C31.8699 43.6221 31.8038 43.627 31.4815 43.7549C31.0157 43.9397 30.5137 44.4447 30.3419 44.9014C30.1619 45.3798 30.1944 46.1089 30.415 46.5378C30.6178 46.9322 30.9663 47.272 31.373 47.4717L31.7046 47.6345H33.2664H34.8281L35.146 47.4784C35.5139 47.2978 35.9033 46.9252 36.0878 46.5774L36.2165 46.3349L37.5581 46.3095C39.0635 46.2809 39.2749 46.244 40.0154 45.8805C40.8242 45.4834 41.4691 44.84 41.8622 44.0378C42.1997 43.349 42.2335 43.1659 42.2605 41.8801L42.2853 40.6994L42.6028 40.5034C43.2645 40.095 43.7631 39.3888 43.9232 38.6333C44.0345 38.1083 44.0345 34.7384 43.9232 34.2134C43.7656 33.4696 43.2579 32.7476 42.6125 32.3493L42.2927 32.1519L42.2262 31.4709C41.9738 28.8862 41.0293 26.653 39.3312 24.6259C37.6466 22.615 35.0961 21.1072 32.4949 20.5846C31.2077 20.326 29.7778 20.2649 28.5532 20.4162ZM19.2342 33.4164C19.2342 33.4164 19.3457 33.5985 19.4058 33.7211V36.4207V39.3267C19.0905 39.6419 18.1913 39.5528 17.7441 39.0447C17.3625 38.6112 17.3421 38.4782 17.3421 36.4233C17.3421 34.3742 17.3632 34.2346 17.7387 33.8081C18.1947 33.29 18.8729 33.1123 19.2342 33.4164ZM41.8091 33.4295C42.1295 33.593 42.481 34.0119 42.5814 34.35C42.6478 34.5738 42.6648 34.9949 42.6648 36.4233C42.6648 38.4782 42.6444 38.6112 42.2628 39.0447C41.8156 39.5528 41.0634 39.743 40.7481 39.4277L40.6011 39.2806V36.4233V33.5661L40.7544 33.4126C40.8959 33.2709 40.9339 33.2611 41.2441 33.2859C41.4291 33.3008 41.6833 33.3654 41.8091 33.4295ZM34.7779 45.1747C34.9327 45.3295 34.9676 45.407 34.9676 45.5959C34.9676 45.8908 34.8432 46.1314 34.6348 46.2391C34.4011 46.3599 32.1377 46.3631 31.9054 46.2429C31.6784 46.1256 31.5652 45.9192 31.5652 45.6229C31.5652 45.4033 31.5937 45.3359 31.7548 45.1747L31.9445 44.9851H33.2664H34.5883L34.7779 45.1747Z" fill="#33C4F2" stroke="#33C4F2" stroke-width="0.4"/>
</g>
<defs>
<clipPath id="clip0_2_122">
<rect width="60" height="60" fill="white"/>
</clipPath>
</defs>
</svg>
