<svg width="61" height="60" viewBox="0 0 61 60" fill="none" xmlns="http://www.w3.org/2000/svg">
<path fill-rule="evenodd" clip-rule="evenodd" d="M23.2132 21.0322C22.1119 21.2207 21.1668 21.8437 20.5638 22.7785C20.4391 22.9717 19.8678 24.2323 19.1851 25.8205L18.0194 28.5325L18.0033 29.404C17.9802 30.655 18.072 31.1113 18.4891 31.8185C18.7091 32.1913 19.2219 32.6926 19.62 32.9239L19.9451 33.1128L19.9595 37.9326C19.9751 43.1629 19.9578 42.8149 20.2401 43.5696C20.5641 44.4356 21.5139 45.3854 22.3807 45.7102C23.1332 45.9921 22.8218 45.9776 28.1354 45.9776H33.0249L33.223 45.8465C33.5279 45.6447 33.6529 45.4058 33.6529 45.0248C33.6529 44.6437 33.5279 44.4048 33.223 44.203L33.025 44.0719L28.2087 44.0474L23.3924 44.023L23.0661 43.8683C22.8866 43.7833 22.6389 43.6208 22.5157 43.5072C22.2463 43.2589 21.967 42.715 21.9217 42.3504L21.8899 42.0949L26.1138 42.0817L30.3377 42.0684L30.5357 41.9373C30.8407 41.7354 30.9657 41.4965 30.9657 41.1155C30.9657 40.7344 30.8407 40.4956 30.5357 40.2937L30.3377 40.1626L26.12 40.1493L21.9022 40.1361V36.7223V33.3085L22.128 33.2517C22.4804 33.163 22.9243 32.9421 23.2575 32.6897L23.5623 32.4588L23.7706 32.6278C24.1051 32.8994 24.4399 33.0848 24.8582 33.2301C25.2047 33.3505 25.3184 33.3659 25.8598 33.3659C26.4013 33.3659 26.5149 33.3505 26.8615 33.2301C27.2779 33.0855 27.6144 32.8995 27.9446 32.6315C28.0566 32.5406 28.1614 32.4662 28.1773 32.4662C28.1934 32.4662 28.3282 32.5653 28.4769 32.6865C29.0576 33.1596 29.6807 33.37 30.5015 33.37C31.4617 33.37 32.1361 33.0878 32.8266 32.3972C33.4745 31.7493 33.7911 31.0342 33.7966 30.2065L33.7995 29.7792L35.1244 29.7789L36.4492 29.7786L36.4733 30.116C36.5021 30.5183 36.6267 30.7505 36.9167 30.9424C37.0817 31.0517 37.169 31.0735 37.4395 31.0735C37.71 31.0735 37.7973 31.0517 37.9623 30.9424C38.2524 30.7505 38.377 30.5183 38.4057 30.116L38.4299 29.7786H39.7494H41.0689L41.0436 30.1848C41.0274 30.4435 40.9856 30.6521 40.9284 30.759C40.8681 30.8718 40.838 31.0325 40.8369 31.2481C40.8356 31.5164 40.8569 31.602 40.9664 31.7674C41.1689 32.0735 41.4067 32.1975 41.7916 32.1975C42.3462 32.1975 42.6308 31.9206 42.8712 31.1468C42.9765 30.8078 42.9851 30.6961 42.9851 29.6564V28.5325L41.8186 25.8205C41.1291 24.2175 40.5641 22.9722 40.4371 22.7752C39.9193 21.9725 39.1701 21.4146 38.2129 21.1189L37.8548 21.0083L30.6481 21.0007C26.6843 20.9966 23.3386 21.0107 23.2132 21.0322ZM37.8913 23.0752C38.2143 23.2057 38.6582 23.5883 38.8302 23.8845C38.9353 24.0656 40.5177 27.7353 40.5177 27.7979C40.5177 27.8122 36.0104 27.824 30.5015 27.824C24.9926 27.824 20.4853 27.8124 20.4853 27.7984C20.4853 27.7601 22.0313 24.1392 22.125 23.9579C22.2318 23.7514 22.6066 23.3539 22.8174 23.2236C22.9099 23.1665 23.1101 23.0797 23.2623 23.0308C23.5251 22.9464 23.8921 22.9425 30.5748 22.9519L37.6105 22.9618L37.8913 23.0752ZM22.5863 30.0387C22.5863 31.2863 21.1021 31.8872 20.2925 30.9673C20.0649 30.7086 19.9478 30.3933 19.9478 30.0387V29.7786H21.267H22.5863V30.0387ZM27.179 30.0387C27.179 30.3963 27.0616 30.7091 26.8274 30.9751C26.5337 31.3088 26.303 31.4134 25.8598 31.4134C25.4167 31.4134 25.186 31.3088 24.8923 30.9751C24.658 30.7091 24.5406 30.3963 24.5406 30.0387V29.7786H25.8598H27.179V30.0387ZM31.8663 30.0947C31.8275 30.4702 31.6348 30.8936 31.4208 31.0736C31.1149 31.3311 30.8932 31.4133 30.5015 31.4145C30.1858 31.4155 30.099 31.3956 29.8745 31.2713C29.4221 31.0206 29.182 30.6385 29.144 30.1084L29.1203 29.7786H30.5097H31.8991L31.8663 30.0947ZM37.0975 32.8307C37.0572 32.8404 36.8593 32.875 36.6578 32.9075C36.4562 32.94 36.0884 33.0388 35.8403 33.127C33.0845 34.1072 31.6128 37.1386 32.5495 39.9056C32.9077 40.9637 33.5057 41.8404 34.9413 43.4122C35.6348 44.1715 36.1701 44.8218 36.4954 45.3004C36.7823 45.7224 36.9226 45.8524 37.1903 45.9448C37.403 46.0182 37.8656 46.0184 38.0796 45.9454C38.3368 45.8576 38.4548 45.744 38.8213 45.2314C39.2186 44.6758 39.6406 44.1669 40.3388 43.4017C41.4558 42.1774 42.0227 41.4249 42.4107 40.6513C43.4697 38.5401 43.0781 36.0571 41.4237 34.3918C40.6817 33.645 39.7719 33.1481 38.7351 32.9233C38.4193 32.8548 37.2675 32.7897 37.0975 32.8307ZM38.3088 34.8376C38.5329 34.882 38.8735 35.0037 39.1496 35.138C39.5377 35.3267 39.6827 35.4327 40.0341 35.7841C40.3852 36.1352 40.4916 36.2809 40.6804 36.6687C40.9676 37.2586 41.0798 37.7925 41.0396 38.3773C40.9603 39.5291 40.5511 40.2427 38.9511 42.0195C38.5154 42.5033 38.0481 43.0366 37.9126 43.2045C37.7772 43.3725 37.6522 43.5099 37.635 43.5099C37.6177 43.5099 37.4928 43.3725 37.3573 43.2045C37.2218 43.0366 36.7545 42.5033 36.3189 42.0195C34.7188 40.2427 34.3096 39.5291 34.2304 38.3773C34.1902 37.7925 34.3024 37.2586 34.5896 36.6687C34.7783 36.2809 34.8848 36.1352 35.2358 35.7841C35.5842 35.4357 35.7356 35.3246 36.1203 35.1351C36.841 34.7802 37.5399 34.6851 38.3088 34.8376ZM37.2146 36.738C36.7577 36.881 36.3337 37.3155 36.212 37.7653C36.1327 38.0583 36.1821 38.6077 36.3101 38.8574C36.8727 39.9553 38.4255 39.9649 38.9901 38.8741C39.13 38.6038 39.1496 38.5193 39.1496 38.1871C39.1496 37.8609 39.1285 37.7659 38.9977 37.5041C38.6703 36.8489 37.9075 36.5211 37.2146 36.738Z" fill="#33C4F2"/>
<path fill-rule="evenodd" clip-rule="evenodd" d="M1.9487 4.43944C1.35499 4.62658 0.342369 5.67513 0.160313 6.29134C-0.0534375 7.01472 -0.0534375 51.8705 0.160313 52.5939C0.356643 53.2584 1.35874 54.2605 2.02322 54.4568C2.40777 54.5704 8.78652 54.6039 30.036 54.6039C61.0607 54.6039 58.2501 54.6971 59.2026 53.6376C59.4903 53.3177 59.7903 52.84 59.8694 52.576C60.0772 51.8823 60.0772 7.00299 59.8694 6.30924C59.7903 6.04529 59.4903 5.56759 59.2026 5.24763C58.2496 4.18759 61.0736 4.27976 29.9614 4.29367C10.2164 4.3025 2.25172 4.344 1.9487 4.43944ZM57.7808 6.5138C58.0777 6.81065 58.0777 6.81101 58.0777 9.41702V12.0233H30.0132H1.9487V9.41702C1.9487 6.81101 1.9487 6.81065 2.24568 6.5138L2.54253 6.21682H30.0132H57.4839L57.7808 6.5138ZM3.88418 9.12005C3.88418 9.65451 4.31746 10.0878 4.85193 10.0878H11.6261H18.4003C18.9348 10.0878 19.3681 9.65451 19.3681 9.12005C19.3681 8.58558 18.9348 8.1523 18.4003 8.1523H11.6261H4.85192C4.31746 8.1523 3.88418 8.58558 3.88418 9.12005ZM46.4648 9.12005C46.4648 9.65451 46.8981 10.0878 47.4326 10.0878C47.967 10.0878 48.4003 9.65451 48.4003 9.12005C48.4003 8.58558 47.967 8.1523 47.4326 8.1523C46.8981 8.1523 46.4648 8.58558 46.4648 9.12005ZM50.3358 9.12005C50.3358 9.65451 50.7691 10.0878 51.3035 10.0878C51.838 10.0878 52.2713 9.65451 52.2713 9.12005C52.2713 8.58558 51.838 8.1523 51.3035 8.1523C50.7691 8.1523 50.3358 8.58558 50.3358 9.12005ZM54.2068 9.12005C54.2068 9.65451 54.64 10.0878 55.1745 10.0878C55.709 10.0878 56.1423 9.65451 56.1423 9.12005C56.1423 8.58558 55.709 8.1523 55.1745 8.1523C54.64 8.1523 54.2068 8.58558 54.2068 9.12005ZM58.0777 33.0166V52.0746L57.7808 52.3715L57.4839 52.6684H30.0132H2.54253L2.24568 52.3715L1.9487 52.0746V33.0166V13.9588H30.0132H58.0777V33.0166Z" fill="#33C4F2"/>
</svg>
