<svg width="42" height="42" viewBox="0 0 42 42" fill="none" xmlns="http://www.w3.org/2000/svg">
<path d="M6.58969 7.79461L6.58967 7.79462C6.44828 7.89081 6.2572 8.07087 6.17011 8.18835L6.58969 7.79461ZM6.58969 7.79461C7.09904 7.44797 7.82593 7.62394 8.23702 8.23393L8.23703 8.23394L8.40685 8.48587V12.622V16.7581L8.23703 17.01L8.31995 17.0659L8.23702 17.01C7.9761 17.3971 7.60791 17.5971 7.24284 17.6159C6.8783 17.6347 6.50637 17.4735 6.23419 17.1167L6.15469 17.1773M6.58969 7.79461L6.15469 17.1773M6.15469 17.1773L6.23419 17.1167L6.01781 16.8331V12.6138C6.01781 10.5192 6.01851 9.45778 6.04025 8.89087M6.15469 17.1773L6.04025 8.89087M0.671883 9.60249L0.671864 9.6025C0.530457 9.6987 0.339362 9.87878 0.25228 9.99625C0.214058 10.0478 0.190007 10.0855 0.170878 10.1479C0.150516 10.2142 0.134743 10.3122 0.123724 10.4843C0.10168 10.8286 0.1 11.4398 0.1 12.622C0.1 13.8042 0.10168 14.4154 0.123724 14.7597C0.134743 14.9318 0.150516 15.0297 0.170879 15.0961C0.190009 15.1584 0.214062 15.1961 0.25229 15.2477C0.534768 15.6289 0.907902 15.8124 1.27397 15.8124C1.64004 15.8124 2.01318 15.6289 2.29566 15.2477C2.33388 15.1961 2.35794 15.1584 2.37707 15.0961C2.39743 15.0297 2.4132 14.9318 2.42422 14.7597C2.44627 14.4154 2.44795 13.8042 2.44795 12.622C2.44795 11.4398 2.44627 10.8286 2.42422 10.4843C2.4132 10.3122 2.39743 10.2142 2.37707 10.1479L0.671883 9.60249ZM0.671883 9.60249C0.83918 9.48862 1.02477 9.43492 1.27397 9.43492C1.66627 9.43492 2.01992 9.62426 2.29566 9.99624L0.671883 9.60249ZM6.04025 8.89087C6.05116 8.60634 6.06721 8.45376 6.08893 8.35976M6.04025 8.89087L6.08893 8.35976M6.08893 8.35976C6.10881 8.2737 6.13254 8.23906 6.17009 8.18837L6.08893 8.35976ZM19.7432 0.15174L19.7277 0.0529619L19.7432 0.15174C20.0703 0.100441 20.6674 0.0888353 21.2767 0.110103C21.8855 0.131356 22.4928 0.184953 22.8396 0.260057C26.2836 1.006 28.8733 3.51196 29.8066 7.00638L29.9033 6.98057L29.8066 7.00639C29.8925 7.32763 29.9367 7.50368 29.9592 8.47566C29.9818 9.45069 29.9822 11.2175 29.9822 14.7175V21.7711L29.7673 22.5484C28.6523 26.5804 25.1303 29.2859 21 29.2859C16.8725 29.2859 13.3409 26.575 12.2357 22.5557L12.0198 21.7709L11.993 15.0458C11.9643 7.86433 11.9744 7.67953 12.3588 6.44745C13.3955 3.12466 16.2358 0.701743 19.7432 0.15174ZM34.1892 7.7909L34.1893 7.79088C34.3499 7.69769 34.5597 7.64343 34.7713 7.63422C34.9834 7.625 35.1873 7.66141 35.3375 7.73905L35.3834 7.65023L35.3375 7.73906C35.3916 7.76705 35.4696 7.8251 35.5521 7.89994C35.6335 7.97379 35.7135 8.05869 35.7724 8.1359L35.9822 8.41087V12.622V16.8331L35.7658 17.1167C35.4936 17.4735 35.1217 17.6347 34.7572 17.6159C34.3921 17.5971 34.0239 17.3971 33.763 17.01L33.5931 16.7581V12.6415C33.5931 10.6072 33.594 9.57164 33.616 9.00634C33.627 8.72317 33.6432 8.56412 33.6655 8.4588C33.6868 8.35853 33.7136 8.30641 33.7537 8.2352L33.7537 8.23515C33.7956 8.16046 33.8664 8.07087 33.9482 7.98748C34.03 7.90403 34.1173 7.83259 34.1892 7.7909ZM34.1391 7.70438C33.9745 7.79979 33.7618 8.01657 33.6665 8.18618L34.1391 7.70438ZM40.1239 9.6025L40.0677 9.51982L40.1239 9.60249C40.2912 9.48862 40.4768 9.43492 40.726 9.43492C41.1183 9.43492 41.472 9.62426 41.7477 9.99624C41.7859 10.0478 41.81 10.0855 41.8291 10.1479C41.8495 10.2142 41.8653 10.3122 41.8763 10.4843C41.8983 10.8286 41.9 11.4398 41.9 12.622C41.9 13.8042 41.8983 14.4154 41.8763 14.7597C41.8653 14.9318 41.8495 15.0297 41.8291 15.0961C41.81 15.1584 41.7859 15.1961 41.7477 15.2477C41.4652 15.6289 41.0921 15.8124 40.726 15.8124C40.36 15.8124 39.9868 15.6289 39.7043 15.2477C39.6661 15.1961 39.6421 15.1584 39.6229 15.0961C39.6026 15.0297 39.5868 14.9318 39.5758 14.7597C39.5537 14.4154 39.5521 13.8042 39.5521 12.622C39.5521 11.4398 39.5537 10.8286 39.5758 10.4843C39.5868 10.3122 39.6026 10.2142 39.6229 10.1479C39.6421 10.0855 39.6661 10.0478 39.7043 9.99625C39.7914 9.87878 39.9825 9.6987 40.1239 9.6025ZM6.21892 23.826L6.12189 23.8502L6.21892 23.826C6.07419 23.2458 6.00597 22.8916 6.00775 22.6301C6.00946 22.3783 6.07614 22.2115 6.21728 22.0055C6.3181 21.8584 6.41542 21.7544 6.52538 21.6772C6.63516 21.6 6.7625 21.546 6.92792 21.5055C7.37227 21.3965 7.91208 21.591 8.16271 21.944L8.16272 21.944C8.17735 21.9646 8.20187 22.0135 8.23394 22.0931C8.26487 22.17 8.29993 22.2681 8.33687 22.3809C8.41071 22.6066 8.49087 22.8877 8.55926 23.1692C8.85148 24.3721 9.16759 25.2111 9.73838 26.2992L9.82693 26.2527L9.73838 26.2992C11.6172 29.8804 15.3235 32.4296 19.3934 32.9418C19.9439 33.0111 20.7535 33.0247 21.5467 32.9942C22.3394 32.9638 23.1249 32.8891 23.6264 32.7791L23.605 32.6815L23.6264 32.7791C26.4517 32.1597 29.0221 30.619 30.7802 28.4886C32.1456 26.8341 32.918 25.2849 33.435 23.1651C33.6571 22.2545 33.7394 22.0558 33.931 21.8527C34.4123 21.3424 35.1594 21.351 35.6544 21.8808L35.7275 21.8125L35.6544 21.8808C35.8717 22.1133 35.9719 22.2786 35.9912 22.5315C36.0115 22.798 35.9425 23.1668 35.7841 23.8082C35.4772 25.0502 35.1494 25.9371 34.5714 27.0886C32.4864 31.2425 28.5585 34.2383 23.9821 35.1647L24.002 35.2627L23.9821 35.1647C23.7056 35.2207 23.431 35.2716 23.2115 35.3084C22.9872 35.346 22.8312 35.367 22.7841 35.367C22.77 35.367 22.7559 35.3669 22.7419 35.3669C22.6989 35.3666 22.657 35.3664 22.6199 35.3682C22.5701 35.3706 22.5181 35.3768 22.4696 35.3958C22.3591 35.4392 22.3022 35.5339 22.2703 35.6711C22.2393 35.8046 22.2262 36.0017 22.2202 36.2881C22.2148 36.5399 22.2149 36.868 22.215 37.2938C22.2151 37.3561 22.2151 37.4205 22.2151 37.487V39.4073V39.5068L22.3146 39.5073L26.8291 39.5299C29.0371 39.541 30.1646 39.5476 30.7682 39.572C31.0712 39.5843 31.2353 39.6009 31.336 39.6229C31.4289 39.6432 31.4642 39.6669 31.5113 39.7021L31.5712 39.622L31.5114 39.7021C31.7212 39.8587 31.8491 39.994 31.9268 40.1456C32.0043 40.2968 32.037 40.4746 32.037 40.7263C32.037 40.9779 32.0043 41.1557 31.9268 41.3069C31.8491 41.4586 31.7211 41.5938 31.5113 41.7504C31.4844 41.7705 31.4684 41.7819 31.4395 41.7929C31.408 41.8049 31.3572 41.8176 31.2629 41.8291C31.0735 41.8521 30.7318 41.868 30.0688 41.8787C28.7452 41.8999 26.1602 41.9 21 41.9C15.8398 41.9 13.2548 41.8999 11.9312 41.8787C11.2682 41.868 10.9265 41.8521 10.7371 41.8291C10.6428 41.8176 10.592 41.8049 10.5605 41.7929C10.5316 41.7819 10.5156 41.7705 10.4887 41.7504C10.2789 41.5938 10.1509 41.4586 10.0732 41.3069C9.99573 41.1557 9.96301 40.9779 9.96301 40.7263C9.96301 40.4746 9.99571 40.2968 10.0732 40.1456C10.1509 39.994 10.2788 39.8587 10.4886 39.7021L10.4288 39.622L10.4887 39.7021C10.5358 39.6669 10.5711 39.6432 10.664 39.6229C10.7647 39.6009 10.9288 39.5843 11.2318 39.572C11.8354 39.5476 12.9629 39.541 15.1709 39.5299L19.6854 39.5073L19.7849 39.5068V39.4073V37.4798V35.5523V35.469L19.703 35.4539L19.5181 35.42L19.5 35.5183L19.518 35.42C19.4156 35.4012 18.8742 35.307 18.3152 35.2107C12.46 34.2019 7.68657 29.7109 6.21892 23.826ZM27.1478 6.6707C26.3061 4.58728 24.4154 3.04068 22.1913 2.61527C20.1387 2.22257 18.0283 2.85386 16.4694 4.32428C15.5141 5.22518 14.9014 6.26466 14.5762 7.53596C14.4936 7.85907 14.4517 8.09127 14.43 9.01491C14.4084 9.93659 14.4068 11.5549 14.4068 14.6528C14.4068 14.8708 14.4068 15.0821 14.4068 15.2869C14.4065 18.5143 14.4064 20.135 14.4817 21.1015C14.522 21.6175 14.584 21.9525 14.6809 22.2489C14.7658 22.5082 14.8768 22.7358 15.0172 23.0234C15.0361 23.0622 15.0555 23.102 15.0755 23.1431C15.7541 24.5408 16.6766 25.4785 18.0378 26.1525C19.0621 26.6597 19.8885 26.8563 21 26.8563C22.1115 26.8563 22.9379 26.6597 23.9622 26.1525C25.2893 25.4954 26.232 24.5529 26.8892 23.226C26.9116 23.1809 26.9333 23.1373 26.9544 23.095C27.1008 22.8011 27.2166 22.5686 27.3051 22.3074C27.4072 22.0062 27.4725 21.6693 27.5148 21.1534C27.5935 20.1916 27.593 18.5884 27.5919 15.3966C27.5919 15.1801 27.5918 14.9563 27.5918 14.7248C27.591 11.2733 27.5901 9.53334 27.5351 8.52301C27.5075 8.01696 27.4662 7.68935 27.4032 7.41902C27.3401 7.1483 27.2559 6.93831 27.1478 6.6707Z" fill="#33C4F2" stroke="white" stroke-width="0.2"/>
</svg>
