<svg width="42" height="44" viewBox="0 0 42 44" fill="none" xmlns="http://www.w3.org/2000/svg">
<mask id="path-1-outside-1_5_160" maskUnits="userSpaceOnUse" x="1" y="0" width="39" height="44" fill="black">
<rect fill="white" x="1" width="39" height="44"/>
<path fill-rule="evenodd" clip-rule="evenodd" d="M7.56914 1.06432C4.76615 1.47828 2.52364 3.75927 2.08559 6.64175C1.97147 7.39271 1.97147 12.1597 2.08559 12.9107C2.48507 15.5397 4.39847 17.695 6.90818 18.3429C7.26505 18.4351 7.97169 18.5362 8.47851 18.5675L9.40006 18.6247L9.83732 19.2816C10.5302 20.3225 11.1021 20.6699 12.1037 20.6581C12.9802 20.6479 13.5625 20.2517 14.2753 19.1808L14.6728 18.5835L20.5415 18.5845L26.4103 18.5856L26.8038 19.2031C27.4858 20.2733 28.0751 20.6579 29.0331 20.6579C30.0001 20.6579 30.5631 20.2935 31.2952 19.1938L31.6841 18.6093L32.5982 18.5582C34.5927 18.4468 36.0759 17.7726 37.3241 16.4102C37.9568 15.7197 38.3977 14.9562 38.7336 13.9692L39 13.1865V9.20865V6.36597L38.7336 5.5832C37.984 3.38082 36.3983 1.8522 34.1759 1.18964C33.5946 1.01636 33.5549 1.01579 20.8417 1.00162C13.2813 0.993129 7.87832 1.01867 7.56914 1.06432ZM33.956 2.14289C35.8246 2.72906 37.2487 4.12511 37.8438 5.95398C38.0249 6.51024 38.0316 6.62609 38.0316 9.20865V13.0217L37.8032 13.701C37.3375 15.0858 36.2877 16.3203 35.0496 16.9389C34.1454 17.3906 33.6 17.5177 32.342 17.5698C31.5401 17.603 31.2161 17.6475 31.1145 17.7382C31.0386 17.806 30.8231 18.1073 30.6356 18.4079C30.011 19.4091 29.6762 19.6736 29.0331 19.6736C28.3784 19.6736 28.129 19.4737 27.4165 18.3775C27.181 18.0149 26.949 17.6909 26.901 17.6575C26.853 17.624 23.9633 17.6055 20.4795 17.6163L14.1452 17.6359L13.5814 18.4757C12.9336 19.4405 12.626 19.6736 12.0005 19.6736C11.4134 19.6736 11.15 19.4709 10.5311 18.5424C10.2311 18.0923 9.94062 17.6996 9.8855 17.6697C9.83046 17.6398 9.29507 17.5949 8.69585 17.57C7.46843 17.519 6.89261 17.3895 6.07016 16.9798C4.55592 16.2253 3.45085 14.7468 3.0809 12.9805C2.91385 12.1829 2.92264 7.35572 3.09365 6.51049C3.55326 4.23865 5.28443 2.50758 7.52565 2.0787C7.97904 1.99194 10.6001 1.9739 20.8014 1.98716C32.4774 2.00232 33.5483 2.01501 33.956 2.14289ZM10.0678 24.9191C8.40491 25.2858 7.04312 26.737 6.75315 28.4513C6.60046 29.3543 6.69392 30.1156 7.13327 31.549C7.16361 31.6478 7.02851 31.7051 6.50136 31.8167C6.13262 31.8948 5.57448 32.0871 5.26103 32.2439C3.83984 32.9554 2.97873 34.6121 3.20365 36.2023C3.36312 37.33 3.87833 40.1014 3.99229 40.4444C4.25627 41.2393 4.94596 42.0732 5.7149 42.5273C6.50063 42.9913 6.59861 43 11.002 43C14.8019 43 15.0864 42.9899 15.5673 42.8382C16.6894 42.4841 17.6279 41.572 18.0111 40.463C18.1322 40.1127 18.7362 36.8123 18.8304 35.9866C18.9922 34.5688 18.059 32.8812 16.7505 32.2253C16.4707 32.085 15.9299 31.905 15.5489 31.8252L14.8563 31.6802L15.0415 31.0847C15.6743 29.05 15.3042 27.3188 13.9555 26.0054C12.9123 24.9894 11.5171 24.5996 10.0678 24.9191ZM29.1542 24.9082C27.6717 25.2608 26.491 26.3296 25.9816 27.78C25.6812 28.6354 25.6872 29.8771 25.9967 30.9193C26.1162 31.3218 26.2037 31.6586 26.1911 31.6677C26.1785 31.6769 25.8776 31.7474 25.5225 31.8246C23.4939 32.2654 22.2509 33.7221 22.2556 35.6534C22.2579 36.6289 22.9083 40.1576 23.204 40.799C23.6448 41.7552 24.4582 42.4872 25.4594 42.8288C25.9411 42.9932 26.1241 43 30.0192 42.999C34.4222 42.9979 34.5152 42.9899 35.3347 42.5359C36.1028 42.1103 36.789 41.2848 37.0721 40.4459C37.197 40.0757 37.8086 36.7222 37.8821 36.0044C37.9914 34.9367 37.5622 33.7455 36.7807 32.9476C36.2212 32.3764 35.5557 32.0314 34.6218 31.8283C34.2468 31.7468 33.956 31.6414 33.956 31.5869C33.956 31.5338 34.0271 31.2794 34.1139 31.0218C34.8413 28.863 34.1667 26.6794 32.4084 25.5008C31.5185 24.9044 30.1883 24.6621 29.1542 24.9082ZM12.1548 26.03C13.3524 26.459 14.2133 27.6365 14.3185 28.9893C14.4299 30.4207 13.5298 32.5938 12.3834 33.6612C11.9588 34.0567 11.5637 34.2655 11.0126 34.3863C10.7444 34.445 10.6539 34.629 10.8029 34.8124C10.9662 35.0132 11.8087 34.9197 12.3721 34.6382C12.9154 34.3668 13.6512 33.6865 14.0655 33.0724C14.2347 32.8214 14.4335 32.618 14.5096 32.618C14.9211 32.618 16.2705 33.0537 16.6446 33.3072C17.3272 33.77 17.896 34.8421 17.896 35.666C17.896 36.1832 17.1533 40.014 16.9777 40.4029C16.74 40.929 16.2448 41.4474 15.6996 41.7407L15.2732 41.97L11.1475 41.9934C7.1218 42.0163 7.01092 42.0127 6.56786 41.8435C5.97969 41.6188 5.295 40.9828 5.03554 40.4202C4.78149 39.8693 4.15418 36.439 4.15676 35.6149C4.15926 34.8281 4.44148 34.1764 5.02319 33.6147C5.53671 33.1188 5.81449 32.9924 6.96072 32.7326C8.04142 32.4876 8.19032 32.4264 8.29935 32.182C8.36811 32.028 8.34317 31.8949 8.17184 31.501C7.88978 30.8523 7.64799 29.8045 7.64727 29.2278C7.64694 28.9721 7.71845 28.5255 7.80617 28.2356C8.38481 26.3228 10.2837 25.3597 12.1548 26.03ZM30.6122 25.8692C31.6992 26.0737 32.6197 26.7934 33.0808 27.7992C33.598 28.9276 33.4599 30.2696 32.6528 31.9588C32.3084 32.6795 32.1367 32.9285 31.6248 33.4494C31.0317 34.053 30.7147 34.2435 30.071 34.3831C29.82 34.4376 29.716 34.6488 29.8556 34.8205C30.0161 35.018 30.8462 34.9239 31.4048 34.6449C31.9608 34.3671 32.7937 33.5952 33.1513 33.0265C33.2924 32.8019 33.4677 32.6188 33.5407 32.6198C33.857 32.624 35.1017 32.9525 35.41 33.1131C36.206 33.5278 36.8161 34.4517 36.9102 35.3854C36.9787 36.0652 36.3039 39.8615 36.009 40.4558C35.7498 40.978 35.2854 41.4503 34.7456 41.7407L34.3192 41.97L30.1936 41.9934C26.1678 42.0163 26.0569 42.0127 25.6139 41.8435C24.9922 41.6059 24.3547 40.9975 24.0883 40.3873C23.8375 39.813 23.2225 36.4324 23.2225 35.6284C23.2225 34.9232 23.4576 34.301 23.9243 33.771C24.405 33.2251 24.8837 32.9858 25.9912 32.7375C27.5357 32.3914 27.5687 32.3528 27.1752 31.3497C26.497 29.6203 26.5694 28.2615 27.3997 27.1386C27.807 26.5877 28.5741 26.0705 29.2132 25.916C29.8465 25.7629 30.0166 25.7571 30.6122 25.8692Z"/>
</mask>
<path fill-rule="evenodd" clip-rule="evenodd" d="M7.56914 1.06432C4.76615 1.47828 2.52364 3.75927 2.08559 6.64175C1.97147 7.39271 1.97147 12.1597 2.08559 12.9107C2.48507 15.5397 4.39847 17.695 6.90818 18.3429C7.26505 18.4351 7.97169 18.5362 8.47851 18.5675L9.40006 18.6247L9.83732 19.2816C10.5302 20.3225 11.1021 20.6699 12.1037 20.6581C12.9802 20.6479 13.5625 20.2517 14.2753 19.1808L14.6728 18.5835L20.5415 18.5845L26.4103 18.5856L26.8038 19.2031C27.4858 20.2733 28.0751 20.6579 29.0331 20.6579C30.0001 20.6579 30.5631 20.2935 31.2952 19.1938L31.6841 18.6093L32.5982 18.5582C34.5927 18.4468 36.0759 17.7726 37.3241 16.4102C37.9568 15.7197 38.3977 14.9562 38.7336 13.9692L39 13.1865V9.20865V6.36597L38.7336 5.5832C37.984 3.38082 36.3983 1.8522 34.1759 1.18964C33.5946 1.01636 33.5549 1.01579 20.8417 1.00162C13.2813 0.993129 7.87832 1.01867 7.56914 1.06432ZM33.956 2.14289C35.8246 2.72906 37.2487 4.12511 37.8438 5.95398C38.0249 6.51024 38.0316 6.62609 38.0316 9.20865V13.0217L37.8032 13.701C37.3375 15.0858 36.2877 16.3203 35.0496 16.9389C34.1454 17.3906 33.6 17.5177 32.342 17.5698C31.5401 17.603 31.2161 17.6475 31.1145 17.7382C31.0386 17.806 30.8231 18.1073 30.6356 18.4079C30.011 19.4091 29.6762 19.6736 29.0331 19.6736C28.3784 19.6736 28.129 19.4737 27.4165 18.3775C27.181 18.0149 26.949 17.6909 26.901 17.6575C26.853 17.624 23.9633 17.6055 20.4795 17.6163L14.1452 17.6359L13.5814 18.4757C12.9336 19.4405 12.626 19.6736 12.0005 19.6736C11.4134 19.6736 11.15 19.4709 10.5311 18.5424C10.2311 18.0923 9.94062 17.6996 9.8855 17.6697C9.83046 17.6398 9.29507 17.5949 8.69585 17.57C7.46843 17.519 6.89261 17.3895 6.07016 16.9798C4.55592 16.2253 3.45085 14.7468 3.0809 12.9805C2.91385 12.1829 2.92264 7.35572 3.09365 6.51049C3.55326 4.23865 5.28443 2.50758 7.52565 2.0787C7.97904 1.99194 10.6001 1.9739 20.8014 1.98716C32.4774 2.00232 33.5483 2.01501 33.956 2.14289ZM10.0678 24.9191C8.40491 25.2858 7.04312 26.737 6.75315 28.4513C6.60046 29.3543 6.69392 30.1156 7.13327 31.549C7.16361 31.6478 7.02851 31.7051 6.50136 31.8167C6.13262 31.8948 5.57448 32.0871 5.26103 32.2439C3.83984 32.9554 2.97873 34.6121 3.20365 36.2023C3.36312 37.33 3.87833 40.1014 3.99229 40.4444C4.25627 41.2393 4.94596 42.0732 5.7149 42.5273C6.50063 42.9913 6.59861 43 11.002 43C14.8019 43 15.0864 42.9899 15.5673 42.8382C16.6894 42.4841 17.6279 41.572 18.0111 40.463C18.1322 40.1127 18.7362 36.8123 18.8304 35.9866C18.9922 34.5688 18.059 32.8812 16.7505 32.2253C16.4707 32.085 15.9299 31.905 15.5489 31.8252L14.8563 31.6802L15.0415 31.0847C15.6743 29.05 15.3042 27.3188 13.9555 26.0054C12.9123 24.9894 11.5171 24.5996 10.0678 24.9191ZM29.1542 24.9082C27.6717 25.2608 26.491 26.3296 25.9816 27.78C25.6812 28.6354 25.6872 29.8771 25.9967 30.9193C26.1162 31.3218 26.2037 31.6586 26.1911 31.6677C26.1785 31.6769 25.8776 31.7474 25.5225 31.8246C23.4939 32.2654 22.2509 33.7221 22.2556 35.6534C22.2579 36.6289 22.9083 40.1576 23.204 40.799C23.6448 41.7552 24.4582 42.4872 25.4594 42.8288C25.9411 42.9932 26.1241 43 30.0192 42.999C34.4222 42.9979 34.5152 42.9899 35.3347 42.5359C36.1028 42.1103 36.789 41.2848 37.0721 40.4459C37.197 40.0757 37.8086 36.7222 37.8821 36.0044C37.9914 34.9367 37.5622 33.7455 36.7807 32.9476C36.2212 32.3764 35.5557 32.0314 34.6218 31.8283C34.2468 31.7468 33.956 31.6414 33.956 31.5869C33.956 31.5338 34.0271 31.2794 34.1139 31.0218C34.8413 28.863 34.1667 26.6794 32.4084 25.5008C31.5185 24.9044 30.1883 24.6621 29.1542 24.9082ZM12.1548 26.03C13.3524 26.459 14.2133 27.6365 14.3185 28.9893C14.4299 30.4207 13.5298 32.5938 12.3834 33.6612C11.9588 34.0567 11.5637 34.2655 11.0126 34.3863C10.7444 34.445 10.6539 34.629 10.8029 34.8124C10.9662 35.0132 11.8087 34.9197 12.3721 34.6382C12.9154 34.3668 13.6512 33.6865 14.0655 33.0724C14.2347 32.8214 14.4335 32.618 14.5096 32.618C14.9211 32.618 16.2705 33.0537 16.6446 33.3072C17.3272 33.77 17.896 34.8421 17.896 35.666C17.896 36.1832 17.1533 40.014 16.9777 40.4029C16.74 40.929 16.2448 41.4474 15.6996 41.7407L15.2732 41.97L11.1475 41.9934C7.1218 42.0163 7.01092 42.0127 6.56786 41.8435C5.97969 41.6188 5.295 40.9828 5.03554 40.4202C4.78149 39.8693 4.15418 36.439 4.15676 35.6149C4.15926 34.8281 4.44148 34.1764 5.02319 33.6147C5.53671 33.1188 5.81449 32.9924 6.96072 32.7326C8.04142 32.4876 8.19032 32.4264 8.29935 32.182C8.36811 32.028 8.34317 31.8949 8.17184 31.501C7.88978 30.8523 7.64799 29.8045 7.64727 29.2278C7.64694 28.9721 7.71845 28.5255 7.80617 28.2356C8.38481 26.3228 10.2837 25.3597 12.1548 26.03ZM30.6122 25.8692C31.6992 26.0737 32.6197 26.7934 33.0808 27.7992C33.598 28.9276 33.4599 30.2696 32.6528 31.9588C32.3084 32.6795 32.1367 32.9285 31.6248 33.4494C31.0317 34.053 30.7147 34.2435 30.071 34.3831C29.82 34.4376 29.716 34.6488 29.8556 34.8205C30.0161 35.018 30.8462 34.9239 31.4048 34.6449C31.9608 34.3671 32.7937 33.5952 33.1513 33.0265C33.2924 32.8019 33.4677 32.6188 33.5407 32.6198C33.857 32.624 35.1017 32.9525 35.41 33.1131C36.206 33.5278 36.8161 34.4517 36.9102 35.3854C36.9787 36.0652 36.3039 39.8615 36.009 40.4558C35.7498 40.978 35.2854 41.4503 34.7456 41.7407L34.3192 41.97L30.1936 41.9934C26.1678 42.0163 26.0569 42.0127 25.6139 41.8435C24.9922 41.6059 24.3547 40.9975 24.0883 40.3873C23.8375 39.813 23.2225 36.4324 23.2225 35.6284C23.2225 34.9232 23.4576 34.301 23.9243 33.771C24.405 33.2251 24.8837 32.9858 25.9912 32.7375C27.5357 32.3914 27.5687 32.3528 27.1752 31.3497C26.497 29.6203 26.5694 28.2615 27.3997 27.1386C27.807 26.5877 28.5741 26.0705 29.2132 25.916C29.8465 25.7629 30.0166 25.7571 30.6122 25.8692Z" fill="#33C4F2"/>
<path fill-rule="evenodd" clip-rule="evenodd" d="M7.56914 1.06432C4.76615 1.47828 2.52364 3.75927 2.08559 6.64175C1.97147 7.39271 1.97147 12.1597 2.08559 12.9107C2.48507 15.5397 4.39847 17.695 6.90818 18.3429C7.26505 18.4351 7.97169 18.5362 8.47851 18.5675L9.40006 18.6247L9.83732 19.2816C10.5302 20.3225 11.1021 20.6699 12.1037 20.6581C12.9802 20.6479 13.5625 20.2517 14.2753 19.1808L14.6728 18.5835L20.5415 18.5845L26.4103 18.5856L26.8038 19.2031C27.4858 20.2733 28.0751 20.6579 29.0331 20.6579C30.0001 20.6579 30.5631 20.2935 31.2952 19.1938L31.6841 18.6093L32.5982 18.5582C34.5927 18.4468 36.0759 17.7726 37.3241 16.4102C37.9568 15.7197 38.3977 14.9562 38.7336 13.9692L39 13.1865V9.20865V6.36597L38.7336 5.5832C37.984 3.38082 36.3983 1.8522 34.1759 1.18964C33.5946 1.01636 33.5549 1.01579 20.8417 1.00162C13.2813 0.993129 7.87832 1.01867 7.56914 1.06432ZM33.956 2.14289C35.8246 2.72906 37.2487 4.12511 37.8438 5.95398C38.0249 6.51024 38.0316 6.62609 38.0316 9.20865V13.0217L37.8032 13.701C37.3375 15.0858 36.2877 16.3203 35.0496 16.9389C34.1454 17.3906 33.6 17.5177 32.342 17.5698C31.5401 17.603 31.2161 17.6475 31.1145 17.7382C31.0386 17.806 30.8231 18.1073 30.6356 18.4079C30.011 19.4091 29.6762 19.6736 29.0331 19.6736C28.3784 19.6736 28.129 19.4737 27.4165 18.3775C27.181 18.0149 26.949 17.6909 26.901 17.6575C26.853 17.624 23.9633 17.6055 20.4795 17.6163L14.1452 17.6359L13.5814 18.4757C12.9336 19.4405 12.626 19.6736 12.0005 19.6736C11.4134 19.6736 11.15 19.4709 10.5311 18.5424C10.2311 18.0923 9.94062 17.6996 9.8855 17.6697C9.83046 17.6398 9.29507 17.5949 8.69585 17.57C7.46843 17.519 6.89261 17.3895 6.07016 16.9798C4.55592 16.2253 3.45085 14.7468 3.0809 12.9805C2.91385 12.1829 2.92264 7.35572 3.09365 6.51049C3.55326 4.23865 5.28443 2.50758 7.52565 2.0787C7.97904 1.99194 10.6001 1.9739 20.8014 1.98716C32.4774 2.00232 33.5483 2.01501 33.956 2.14289ZM10.0678 24.9191C8.40491 25.2858 7.04312 26.737 6.75315 28.4513C6.60046 29.3543 6.69392 30.1156 7.13327 31.549C7.16361 31.6478 7.02851 31.7051 6.50136 31.8167C6.13262 31.8948 5.57448 32.0871 5.26103 32.2439C3.83984 32.9554 2.97873 34.6121 3.20365 36.2023C3.36312 37.33 3.87833 40.1014 3.99229 40.4444C4.25627 41.2393 4.94596 42.0732 5.7149 42.5273C6.50063 42.9913 6.59861 43 11.002 43C14.8019 43 15.0864 42.9899 15.5673 42.8382C16.6894 42.4841 17.6279 41.572 18.0111 40.463C18.1322 40.1127 18.7362 36.8123 18.8304 35.9866C18.9922 34.5688 18.059 32.8812 16.7505 32.2253C16.4707 32.085 15.9299 31.905 15.5489 31.8252L14.8563 31.6802L15.0415 31.0847C15.6743 29.05 15.3042 27.3188 13.9555 26.0054C12.9123 24.9894 11.5171 24.5996 10.0678 24.9191ZM29.1542 24.9082C27.6717 25.2608 26.491 26.3296 25.9816 27.78C25.6812 28.6354 25.6872 29.8771 25.9967 30.9193C26.1162 31.3218 26.2037 31.6586 26.1911 31.6677C26.1785 31.6769 25.8776 31.7474 25.5225 31.8246C23.4939 32.2654 22.2509 33.7221 22.2556 35.6534C22.2579 36.6289 22.9083 40.1576 23.204 40.799C23.6448 41.7552 24.4582 42.4872 25.4594 42.8288C25.9411 42.9932 26.1241 43 30.0192 42.999C34.4222 42.9979 34.5152 42.9899 35.3347 42.5359C36.1028 42.1103 36.789 41.2848 37.0721 40.4459C37.197 40.0757 37.8086 36.7222 37.8821 36.0044C37.9914 34.9367 37.5622 33.7455 36.7807 32.9476C36.2212 32.3764 35.5557 32.0314 34.6218 31.8283C34.2468 31.7468 33.956 31.6414 33.956 31.5869C33.956 31.5338 34.0271 31.2794 34.1139 31.0218C34.8413 28.863 34.1667 26.6794 32.4084 25.5008C31.5185 24.9044 30.1883 24.6621 29.1542 24.9082ZM12.1548 26.03C13.3524 26.459 14.2133 27.6365 14.3185 28.9893C14.4299 30.4207 13.5298 32.5938 12.3834 33.6612C11.9588 34.0567 11.5637 34.2655 11.0126 34.3863C10.7444 34.445 10.6539 34.629 10.8029 34.8124C10.9662 35.0132 11.8087 34.9197 12.3721 34.6382C12.9154 34.3668 13.6512 33.6865 14.0655 33.0724C14.2347 32.8214 14.4335 32.618 14.5096 32.618C14.9211 32.618 16.2705 33.0537 16.6446 33.3072C17.3272 33.77 17.896 34.8421 17.896 35.666C17.896 36.1832 17.1533 40.014 16.9777 40.4029C16.74 40.929 16.2448 41.4474 15.6996 41.7407L15.2732 41.97L11.1475 41.9934C7.1218 42.0163 7.01092 42.0127 6.56786 41.8435C5.97969 41.6188 5.295 40.9828 5.03554 40.4202C4.78149 39.8693 4.15418 36.439 4.15676 35.6149C4.15926 34.8281 4.44148 34.1764 5.02319 33.6147C5.53671 33.1188 5.81449 32.9924 6.96072 32.7326C8.04142 32.4876 8.19032 32.4264 8.29935 32.182C8.36811 32.028 8.34317 31.8949 8.17184 31.501C7.88978 30.8523 7.64799 29.8045 7.64727 29.2278C7.64694 28.9721 7.71845 28.5255 7.80617 28.2356C8.38481 26.3228 10.2837 25.3597 12.1548 26.03ZM30.6122 25.8692C31.6992 26.0737 32.6197 26.7934 33.0808 27.7992C33.598 28.9276 33.4599 30.2696 32.6528 31.9588C32.3084 32.6795 32.1367 32.9285 31.6248 33.4494C31.0317 34.053 30.7147 34.2435 30.071 34.3831C29.82 34.4376 29.716 34.6488 29.8556 34.8205C30.0161 35.018 30.8462 34.9239 31.4048 34.6449C31.9608 34.3671 32.7937 33.5952 33.1513 33.0265C33.2924 32.8019 33.4677 32.6188 33.5407 32.6198C33.857 32.624 35.1017 32.9525 35.41 33.1131C36.206 33.5278 36.8161 34.4517 36.9102 35.3854C36.9787 36.0652 36.3039 39.8615 36.009 40.4558C35.7498 40.978 35.2854 41.4503 34.7456 41.7407L34.3192 41.97L30.1936 41.9934C26.1678 42.0163 26.0569 42.0127 25.6139 41.8435C24.9922 41.6059 24.3547 40.9975 24.0883 40.3873C23.8375 39.813 23.2225 36.4324 23.2225 35.6284C23.2225 34.9232 23.4576 34.301 23.9243 33.771C24.405 33.2251 24.8837 32.9858 25.9912 32.7375C27.5357 32.3914 27.5687 32.3528 27.1752 31.3497C26.497 29.6203 26.5694 28.2615 27.3997 27.1386C27.807 26.5877 28.5741 26.0705 29.2132 25.916C29.8465 25.7629 30.0166 25.7571 30.6122 25.8692Z" stroke="#33C4F2" stroke-width="0.6" mask="url(#path-1-outside-1_5_160)"/>
</svg>
