<svg width="42" height="43" viewBox="0 0 42 43" fill="none" xmlns="http://www.w3.org/2000/svg">
<path fill-rule="evenodd" clip-rule="evenodd" d="M9.47648 0.433025C6.72018 1.14272 4.17833 2.45659 2.56515 4.00524C1.5218 5.00691 1.25666 5.39734 1.11654 6.13873C0.96176 6.95702 0.960965 11.5178 1.1153 12.8449C1.59817 16.9972 2.50678 20.5514 4.00519 24.1497C5.1265 26.8425 6.24923 28.8709 8.09983 31.5474C10.5642 35.1117 14.3173 38.842 17.6877 41.0773C19.4047 42.216 19.4592 42.2368 20.5564 42.1706C23.1393 42.0146 26.0781 40.7074 28.7683 38.5179C29.8336 37.6508 29.8626 37.4924 29.1587 36.3921C28.9322 36.0382 28.7617 35.7376 28.7797 35.7242C28.7977 35.7107 29.0111 35.6272 29.2539 35.5384C30.6929 35.0128 32.7511 33.7888 34.11 32.6508C37.35 29.9373 39.3843 26.3281 40.1727 21.8948C40.3299 21.0107 40.3296 17.5807 40.1721 16.6856C39.8575 14.8968 39.3919 13.3986 38.6955 11.9341C37.2452 8.88409 35.2384 6.56571 32.4766 4.74972C27.5626 1.51849 21.2955 1.00436 15.8802 3.38808C15.1369 3.71529 13.9219 4.39072 13.0748 4.94767C12.8545 5.09256 12.7798 5.10863 12.7513 5.01733C12.731 4.952 12.5753 4.40194 12.4051 3.79493C11.9519 2.1775 11.3707 0.604311 11.1416 0.375193C10.8847 0.118351 10.6696 0.125856 9.47648 0.433025ZM10.4854 2.18359C10.7962 2.9942 11.4293 5.25811 11.6275 6.26711C11.8946 7.62796 11.9928 8.47274 11.9928 9.40969V10.2438L11.3658 10.6494C10.4292 11.2554 9.41865 11.7721 8.28454 12.2252C7.72609 12.4484 7.21956 12.6965 7.15881 12.7768C6.99309 12.996 7.02408 13.6099 7.27651 15.1099C8.33071 21.3729 11.1977 27.0471 15.733 31.8467C16.5475 32.7088 17.0532 33.1079 17.3305 33.1079C17.4351 33.1079 17.8761 32.8824 18.3105 32.6066C19.2035 32.04 20.7321 31.2906 21.6773 30.9563L22.3118 30.7319L22.8251 31.1281C24.081 32.0975 25.9168 34.1099 27.2489 35.9774C28.1921 37.2997 28.1679 37.2224 27.7514 37.5806C27.137 38.109 25.591 39.1097 24.7148 39.5462C23.1963 40.3028 22.1454 40.6359 20.7602 40.8L19.9479 40.8962L19.2593 40.48C16.376 38.7374 12.8432 35.5152 10.4317 32.4284C9.48028 31.2106 7.85773 28.7777 7.08685 27.4131C5.50854 24.6192 4.10064 20.9797 3.2955 17.6127C2.52003 14.3695 2.1356 10.1599 2.36419 7.41491C2.46078 6.25475 2.49275 6.10571 2.70421 5.82565C3.64107 4.58523 5.64434 3.23674 7.76918 2.41616C8.59621 2.09671 9.91759 1.68827 10.1485 1.68059C10.242 1.6775 10.3575 1.84985 10.4854 2.18359ZM24.6591 3.35726C29.4363 3.9045 33.5747 6.41403 36.2313 10.3747C39.8984 15.8418 39.8881 22.8152 36.2047 28.3402C35.2872 29.7165 33.3629 31.6569 32.0155 32.5642C30.9816 33.2605 29.7337 33.9156 28.6344 34.3393L27.9296 34.6108L27.7534 34.3671C26.417 32.5178 23.5691 29.7559 22.6306 29.3991C22.1659 29.2225 19.3693 30.3314 17.8847 31.281L17.3929 31.5957L16.6546 30.8288C13.9682 28.0378 11.6991 24.5073 10.2886 20.9236C9.46147 18.822 8.6702 15.836 8.49423 14.1526L8.43905 13.6249L8.95777 13.4186C10.3026 12.8838 12.5201 11.6201 13.1063 11.0542C13.2346 10.9303 13.3103 10.714 13.3498 10.3587C13.4071 9.84144 13.2936 7.95852 13.152 7.07631L13.0763 6.60527L13.7296 6.14924C16.8628 3.96215 20.9116 2.9279 24.6591 3.35726ZM14.3326 12.7628C12.7301 14.0036 11.3228 15.1134 11.2055 15.2289C11.0667 15.3654 10.9922 15.5391 10.9922 15.7259C10.9922 16.0734 10.8991 15.9907 14.5444 18.8826C16.8418 20.7053 17.2709 21.0119 17.5242 21.0119C17.7024 21.0119 17.8904 20.9416 17.9967 20.8353C18.1537 20.6783 18.1733 20.541 18.1733 19.5992V18.5397H22.1945H26.2159L26.4326 18.323L26.6493 18.1063L26.6465 15.7846C26.6445 14.0989 26.6143 13.4245 26.5361 13.3228C26.2795 12.9885 26.1353 12.9773 22.1081 12.9773H18.1733V11.9345C18.1733 11.007 18.1533 10.8702 17.9932 10.6984C17.5898 10.2653 17.472 10.3317 14.3326 12.7628ZM16.8489 13.235C16.8489 14.4562 16.5884 14.39 21.3938 14.39H25.3294L25.3051 15.7806L25.2808 17.1712L21.2682 17.1942C16.5032 17.2214 16.8489 17.1358 16.8489 18.2896V18.9798L14.8402 17.3841C13.7355 16.5064 12.8316 15.7565 12.8316 15.7176C12.8316 15.6405 16.6747 12.636 16.7827 12.6286C16.819 12.6262 16.8489 12.899 16.8489 13.235ZM27.9939 18.6871C27.7279 18.7942 27.6205 19.2327 27.6205 20.2129V21.1885H23.6593C19.7855 21.1885 19.6929 21.1926 19.4654 21.3715L19.2328 21.5545V23.9625C19.2328 26.298 19.2383 26.3754 19.4185 26.5386C19.5946 26.6979 19.8138 26.7081 23.6051 26.7314L27.6059 26.756L27.6353 27.821C27.6627 28.8159 27.6784 28.897 27.8731 29.0545C28.3143 29.4113 28.4 29.3619 31.5657 26.9208C33.2078 25.6545 34.621 24.5376 34.706 24.4388C34.7909 24.34 34.8605 24.1267 34.8605 23.9648C34.8605 23.6103 35.0021 23.7362 31.2952 20.7929C28.5796 18.6366 28.4016 18.523 27.9939 18.6871ZM32.9983 23.9724C33.0183 24.0195 32.1442 24.7461 31.0559 25.5873L29.0773 27.1166L29.0278 26.4702C29.0006 26.1147 28.9487 25.7596 28.9126 25.6812C28.7641 25.3591 28.4945 25.3382 24.482 25.3382H20.5572V23.9255V22.5129H24.5646C29.324 22.5129 28.968 22.5963 29.0191 21.469L29.0513 20.7611L31.0067 22.3239C32.0823 23.1835 32.9785 23.9253 32.9983 23.9724Z" fill="#33C4F2"/>
</svg>
