<svg width="43" height="42" viewBox="0 0 43 42" fill="none" xmlns="http://www.w3.org/2000/svg">
<path fill-rule="evenodd" clip-rule="evenodd" d="M18.7486 0.319285C13.8016 0.918064 9.52591 3.02987 6.09092 6.5712C0.0225069 12.8272 -1.48418 22.2573 2.33198 30.0975C2.66031 30.772 2.92889 31.4295 2.92889 31.5588C2.92889 31.688 2.42564 33.4662 1.81055 35.5104C1.19546 37.5544 0.692487 39.3212 0.692767 39.4364C0.693792 39.8672 0.901338 40.3697 1.22724 40.7304C1.63152 41.1779 1.90943 41.3316 2.46413 41.4148C2.82927 41.4695 3.35666 41.3346 6.62204 40.352C8.67885 39.7331 10.4676 39.2266 10.5967 39.2266C10.726 39.2266 11.3836 39.4952 12.058 39.8235C16.5167 41.9937 21.5932 42.4889 26.5439 41.2365C33.3311 39.5195 38.866 34.4217 41.1212 27.8102C43.4344 21.0284 42.1217 13.5283 37.6466 7.95962C34.238 3.71812 29.4385 1.03978 23.9592 0.321521C22.6426 0.148924 20.1652 0.147899 18.7486 0.319285ZM23.3387 2.23305C25.3402 2.44814 27.3398 3.02754 29.2775 3.95399C35.1816 6.77669 39.1243 12.2864 39.9321 18.8428C40.0741 19.9958 39.9989 23.1463 39.8049 24.1773C38.9903 28.5033 36.8988 32.2938 33.7953 35.0687C30.9446 37.6175 27.5249 39.2099 23.7482 39.7468C22.2963 39.9533 19.8264 39.9507 18.4491 39.7413C16.4147 39.4318 14.5411 38.8437 12.7836 37.9629C10.8263 36.9818 10.9647 36.9736 6.42278 38.3374C4.43735 38.9335 2.79516 39.4035 2.77354 39.382C2.75201 39.3604 3.22255 37.7164 3.81937 35.7288C4.85859 32.2674 4.90305 32.0849 4.87192 31.4031C4.84303 30.7716 4.79075 30.5972 4.40781 29.8565C2.94595 27.0289 2.25258 24.1819 2.25258 21.007C2.25258 19.8901 2.3056 18.9879 2.41119 18.3075C3.42255 11.7895 7.4922 6.40988 13.4348 3.73582C16.5015 2.35588 19.8096 1.85393 23.3387 2.23305ZM11.1535 12.2508C10.407 12.4518 9.93112 12.7316 9.35732 13.3067C8.75211 13.9133 8.38939 14.6158 8.24205 15.4669C8.17122 15.8756 8.14699 17.7802 8.16619 21.4263C8.19387 26.6797 8.19843 26.7957 8.39862 27.3255C8.80467 28.3998 9.6903 29.3166 10.7252 29.734L11.2699 29.9537L17.281 29.9824C21.5226 30.0026 23.4566 29.9796 23.8512 29.9042C25.7067 29.5498 27.0665 27.8518 27.0665 25.8888C27.0665 25.4872 27.0895 25.428 27.2296 25.4692C28.2956 25.7835 32.9503 27.0181 33.069 27.0181C33.3776 27.0181 33.7928 26.7222 33.9237 26.4091C34.1198 25.9398 34.1198 16.1673 33.9237 15.698C33.7906 15.3795 33.3764 15.0891 33.0554 15.0891C32.9612 15.0891 31.586 15.4455 29.9994 15.8812C28.4128 16.3169 27.1038 16.6734 27.0905 16.6734C27.0773 16.6734 27.066 16.4322 27.0653 16.1375C27.0616 14.3142 25.8164 12.7087 24.0376 12.2335C23.3386 12.0468 11.8538 12.0622 11.1535 12.2508ZM23.5976 14.1734C24.1897 14.3224 24.8496 14.9789 24.9974 15.5658C25.1471 16.1602 25.1471 25.9469 24.9974 26.5414C24.8375 27.1763 24.1769 27.8029 23.5161 27.9463C23.1531 28.0249 21.4245 28.0472 17.3276 28.0261C11.7139 27.997 11.638 27.9941 11.2699 27.7959C10.8019 27.5441 10.5269 27.2518 10.3424 26.81C10.1254 26.2909 10.1254 15.8162 10.3424 15.2971C10.5791 14.7303 11.0213 14.354 11.6887 14.151C12.093 14.028 23.1025 14.0487 23.5976 14.1734ZM32.0058 21.0536C32.0058 23.0526 31.9862 24.6882 31.9624 24.6882C31.9384 24.6882 30.8467 24.3946 29.5361 24.0358C28.2256 23.677 27.1338 23.3834 27.1099 23.3834C27.086 23.3834 27.0665 22.3401 27.0665 21.0648V18.7463L27.9751 18.498C28.4749 18.3615 29.5338 18.0674 30.3283 17.8444C31.1228 17.6214 31.8253 17.4344 31.8893 17.4289C31.9807 17.4211 32.0058 18.2026 32.0058 21.0536Z" fill="#33C4F2"/>
</svg>
