<svg width="42" height="42" viewBox="0 0 42 42" fill="none" xmlns="http://www.w3.org/2000/svg">
<path fill-rule="evenodd" clip-rule="evenodd" d="M28.3114 0.0217021C23.9902 0.491924 20.5245 2.68803 18.3799 6.31498C17.2601 8.20861 16.6952 10.3589 16.7007 12.7065C16.705 14.5353 17.0283 16.108 17.7346 17.7352C18.3629 19.183 19.0603 20.2027 20.4403 21.6919C22.0538 23.433 22.9036 25.0595 23.4063 27.3689C23.5814 28.173 23.5536 30.6226 23.3593 31.5154C22.9384 33.4498 22.0058 35.2978 20.7921 36.6023L20.3149 37.1153L20.1246 36.8588C19.7062 36.2949 18.6976 35.3265 18.1486 34.9615C17.4166 34.475 16.3677 34.0471 15.4611 33.8651C14.8782 33.7482 14.3478 33.7302 12.3385 33.7594C10.1503 33.7912 9.85629 33.8129 9.27625 33.9843C7.58473 34.4841 6.18083 35.4872 5.13351 36.9443C5.01348 37.1114 5.00347 37.1085 4.69746 36.8161C3.80738 35.9658 2.80438 34.3224 2.31819 32.9179C1.48877 30.522 1.57004 27.605 2.53053 25.2993C4.16396 21.3784 7.35734 18.9688 11.5733 18.4763C12.6332 18.3525 12.8948 18.2189 12.9982 17.7488C13.0654 17.4429 12.8549 16.9397 12.6033 16.8052C12.3379 16.6632 10.8265 16.756 9.86399 16.9735C4.89833 18.0952 1.09095 22.1212 0.15442 27.2406C-0.0514164 28.3659 -0.051502 30.5984 0.154335 31.6405C0.695276 34.3791 1.9516 36.6496 3.98404 38.5616C7.15133 41.5411 11.5804 42.6774 15.8386 41.6028C22.2947 39.9736 26.4392 33.2777 25.0567 26.71C24.752 25.262 23.9791 23.4559 23.1683 22.2967L22.7756 21.7354L22.9643 21.3473C23.2435 20.7731 23.9222 19.9606 24.4648 19.5512C25.1021 19.0703 26.0434 18.633 26.774 18.4783C27.4975 18.3252 30.9604 18.2997 31.7391 18.4418C33.2675 18.7206 34.6222 19.6221 35.5013 20.9451L35.8196 21.4242L35.6159 21.5923C35.211 21.9266 33.8256 22.6407 33.0323 22.9241C32.1382 23.2434 31.2489 23.4394 30.1675 23.5556C29.4067 23.6373 29.2132 23.7416 29.0381 24.1639C28.9597 24.3532 28.9597 24.4794 29.0379 24.7166C29.1834 25.1568 29.46 25.3072 30.0947 25.2909C31.6148 25.2519 33.4021 24.785 34.9439 24.0239C38.5027 22.2672 40.9972 18.9503 41.801 14.9061C42.0501 13.653 42.0681 11.517 41.8393 10.3585C41.2983 7.61989 40.042 5.3494 38.0095 3.43739C36.2372 1.77016 33.8985 0.590756 31.5624 0.186365C30.771 0.049317 28.9193 -0.044471 28.3114 0.0217021ZM31.9046 2.05238C33.4395 2.44189 34.6825 3.02924 35.8851 3.93344C38.141 5.62931 39.655 8.12115 40.1205 10.9038C40.3354 12.1881 40.2602 14.0384 39.9431 15.2713C39.6703 16.3325 39.2089 17.4382 38.6619 18.3426C38.2649 18.9988 37.3015 20.2302 37.1853 20.2299C37.1512 20.2298 37.0196 20.0663 36.8928 19.8665C35.9928 18.4476 34.2369 17.2402 32.4515 16.8125C31.8205 16.6613 31.4434 16.6405 29.3381 16.6405C27.228 16.6405 26.856 16.6611 26.2154 16.8138C25.2575 17.0421 24.069 17.6272 23.2921 18.2529C22.7042 18.7264 21.9176 19.6029 21.6902 20.0377C21.6349 20.1435 21.5526 20.23 21.5073 20.23C21.3784 20.23 20.3464 18.8883 19.929 18.1782C18.0957 15.0588 17.9476 11.0166 19.5494 7.81422C20.5673 5.77919 22.4504 3.89813 24.4898 2.87937C25.2377 2.50567 26.6467 2.04614 27.507 1.89532C28.6394 1.69672 30.8084 1.77418 31.9046 2.05238ZM28.5388 4.50429C25.84 4.98297 24.0269 7.4483 24.3412 10.212C24.7247 13.5848 27.4349 16.3471 29.9092 15.8873C30.8121 15.7195 31.4712 15.3382 32.2896 14.5102C34.0156 12.7639 34.7726 10.2541 34.2003 8.17527C33.7327 6.47682 32.2223 4.98819 30.5687 4.59594C29.9741 4.45496 29.0518 4.41332 28.5388 4.50429ZM30.6145 6.45135C32.2391 7.17788 32.9803 8.93095 32.4585 10.8127C31.9274 12.7281 30.5934 14.1567 29.3334 14.1591C27.6972 14.1622 25.9256 11.552 26.0702 9.35091C26.1619 7.95503 26.9817 6.85719 28.2968 6.36919C28.9017 6.14476 30.0173 6.18426 30.6145 6.45135ZM11.3723 21.726C8.89897 22.4279 7.31105 24.8457 7.64898 27.3953C7.95474 29.7019 9.3056 31.7827 11.0621 32.6525C11.7689 33.0026 11.8087 33.0115 12.6491 33.0115C13.4684 33.0115 13.5442 32.9957 14.1819 32.6914C16.6933 31.4931 18.3072 27.7718 17.4574 25.1393C16.9583 23.5938 15.76 22.3548 14.2491 21.822C13.624 21.6017 12.0012 21.5475 11.3723 21.726ZM14.0259 23.638C15.11 24.145 15.8326 25.2008 15.9242 26.4121C16.0772 28.433 14.5682 30.9273 12.991 31.2605C11.9114 31.4886 10.6909 30.5686 9.92585 28.95C9.48928 28.0264 9.33511 27.3398 9.37857 26.5127C9.45737 25.0134 10.4769 23.7562 11.9066 23.3952C12.4917 23.2475 13.4177 23.3536 14.0259 23.638ZM15.4787 35.6508C16.7157 35.9927 18.0046 36.8937 18.6989 37.9021L18.9503 38.2673L18.4978 38.556C17.4862 39.2015 16.211 39.7222 14.8799 40.0332C14.3451 40.1581 13.8588 40.1931 12.6555 40.1931C11.4523 40.1931 10.966 40.1581 10.4312 40.0332C9.1001 39.7222 7.82487 39.2015 6.81331 38.556L6.36075 38.2673L6.6387 37.8623C7.44913 36.6813 8.92892 35.762 10.3859 35.5344C10.6461 35.4937 11.7829 35.4714 12.9122 35.4847C14.5023 35.5035 15.0812 35.5411 15.4787 35.6508Z" fill="#33C4F2"/>
</svg>
