<svg width="42" height="42" viewBox="0 0 42 42" fill="none" xmlns="http://www.w3.org/2000/svg">
<path d="M24.7796 6.33407L24.7743 6.29144L24.7796 6.33406C25.0399 6.30178 25.6596 6.30786 26.3025 6.33774C26.9446 6.36759 27.6021 6.4208 27.9369 6.48106C30.0647 6.8642 32.0488 7.92232 33.6874 9.54941L33.7226 9.51393L33.6874 9.54942C35.2804 11.131 36.3022 13.0396 36.7486 15.2676C36.8241 15.6445 36.8745 16.2981 36.8922 16.9717C36.9099 17.645 36.8948 18.3333 36.8406 18.7791L36.7758 19.3123L36.7716 19.3469L36.8026 19.3628L37.3596 19.6488C39.4414 20.7179 41.0553 22.7523 41.686 25.1047C41.8687 25.7864 41.8957 26.0466 41.8957 27.1523C41.8957 28.2637 41.869 28.5184 41.6803 29.2313C41.4241 30.199 40.8144 31.4728 40.256 32.208L40.2958 32.2382L40.256 32.208C39.1745 33.632 37.7249 34.6869 36.0715 35.2538C36.0379 35.2653 36.0054 35.2766 35.9737 35.2875C35.6777 35.3896 35.4555 35.4663 35.1166 35.525C34.7405 35.5901 34.2199 35.6332 33.2984 35.6614C31.5449 35.7152 28.3487 35.7152 21.9536 35.7152C21.6284 35.7152 21.2949 35.7152 20.9529 35.7152C20.3939 35.7153 19.8578 35.7153 19.3433 35.7153C13.2525 35.7159 10.2083 35.7161 8.52493 35.6578C7.61216 35.6262 7.10227 35.5774 6.72485 35.5027C6.40666 35.4398 6.18214 35.3585 5.88624 35.2514C5.83161 35.2316 5.77454 35.211 5.714 35.1894L5.69814 35.2338L5.71399 35.1894C4.47999 34.7495 3.08528 33.8232 2.26052 32.8969C-0.336058 29.9803 -0.656385 25.6926 1.48245 22.5049L1.44093 22.477L1.48245 22.5049C2.24796 21.3639 3.44041 20.2742 4.5686 19.6835C4.68033 19.625 4.76681 19.5797 4.83306 19.5379C4.8997 19.496 4.94964 19.4555 4.98637 19.4049C5.0234 19.3539 5.0443 19.2965 5.05919 19.2252C5.07386 19.155 5.08336 19.0675 5.09542 18.9558L5.04571 18.9504L5.09542 18.9558C5.39622 16.1674 6.87883 13.8353 9.25418 12.4127C11.065 11.3281 13.419 10.9506 15.4516 11.4183C15.5281 11.4359 15.5987 11.4524 15.6639 11.4677C15.8228 11.505 15.95 11.5348 16.0532 11.5543C16.1979 11.5816 16.305 11.5909 16.3938 11.5677C16.4861 11.5437 16.5514 11.4869 16.6174 11.4015C16.6634 11.3422 16.7127 11.2648 16.7734 11.1697C16.7979 11.1313 16.8242 11.09 16.853 11.0458C17.087 10.6857 17.6073 10.104 18.1691 9.54583C18.7308 8.98783 19.3284 8.45874 19.7151 8.20234C21.2261 7.20053 22.9658 6.55871 24.7796 6.33407ZM7.61006 18.1978L7.64961 18.2085L7.61006 18.1978C7.50399 18.5901 7.46297 19.0642 7.46001 19.9033L7.45595 21.0288L6.70834 21.3209C4.94818 22.0085 3.71472 23.1076 2.99213 24.6371C2.16322 26.3915 2.2687 28.6122 3.26049 30.2897C3.86491 31.3119 5.09364 32.3785 6.21479 32.8549C6.28435 32.8844 6.34623 32.9123 6.40447 32.9385C6.58 33.0176 6.72243 33.0818 6.94194 33.1317C7.2336 33.1979 7.66281 33.2398 8.50035 33.2674C9.96471 33.3156 12.689 33.3204 18.1348 33.33C18.9221 33.3313 19.7663 33.3328 20.6718 33.3345C26.5894 33.3458 29.8977 33.3487 31.8004 33.334C33.7008 33.3193 34.2032 33.2871 34.504 33.2267C36.7985 32.7653 38.5654 31.1867 39.3126 28.9317C39.4053 28.652 39.4609 28.4473 39.4937 28.2068C39.5263 27.9671 39.536 27.6932 39.5386 27.2756C39.5472 25.8695 39.2894 24.9661 38.5584 23.8438C38.2613 23.3875 37.8185 22.9048 37.3499 22.4985C36.8818 22.0926 36.3839 21.7592 35.9751 21.6051C35.5899 21.4599 35.0928 21.2265 34.6919 21.0147C34.4915 20.9088 34.3161 20.8088 34.1914 20.7284C34.1288 20.6881 34.0803 20.6535 34.0479 20.6262C34.0316 20.6124 34.0208 20.6016 34.0146 20.5939C34.0136 20.5928 34.0129 20.5918 34.0123 20.591C34.0134 20.5764 34.0173 20.5509 34.0246 20.5146C34.033 20.4729 34.0452 20.4205 34.0604 20.3608C34.0907 20.2415 34.1325 20.0944 34.1783 19.9485C34.6779 18.3596 34.7006 16.5487 34.241 14.9568C33.2878 11.6552 30.5233 9.24537 27.1029 8.73399C24.9015 8.4049 22.5445 9.03616 20.657 10.4585C19.5105 11.3224 18.6203 12.457 17.9439 13.9144C17.8433 14.1313 17.7496 14.3306 17.6799 14.4769C17.645 14.55 17.6161 14.6098 17.5954 14.6519C17.5889 14.6651 17.5832 14.6765 17.5784 14.686C17.5697 14.6831 17.5595 14.6794 17.5476 14.6751C17.5036 14.6589 17.4407 14.6342 17.3632 14.6026C17.2085 14.5395 16.9973 14.4497 16.7673 14.3485C16.0873 14.0492 15.601 13.8654 15.1283 13.7572C14.655 13.6489 14.1977 13.6168 13.576 13.6185C13.084 13.6198 12.7986 13.6256 12.5437 13.6628C12.288 13.7002 12.0644 13.7691 11.6958 13.8937C9.72203 14.5609 8.14435 16.2225 7.61006 18.1978Z" fill="#33C4F2" stroke="white" stroke-width="0.1"/>
</svg>
