<svg width="42" height="42" viewBox="0 0 42 42" fill="none" xmlns="http://www.w3.org/2000/svg">
<path fill-rule="evenodd" clip-rule="evenodd" d="M14.935 0.0541423C8.29313 0.877878 2.87253 5.28634 0.826022 11.5287C0.233873 13.335 0 14.8362 0 16.8308C0 20.7237 1.32971 24.4699 3.76896 27.449C4.41289 28.2354 5.88703 29.6544 6.66307 30.2348C9.89963 32.6553 13.9596 33.8637 17.9032 33.5803C18.8775 33.5102 20.5288 33.2542 20.8822 33.1184C20.9815 33.0802 21.0028 33.4729 21.0238 35.7311C21.0478 38.3078 21.0542 38.3993 21.2337 38.7357C21.5105 39.2545 21.8612 39.6173 22.4916 40.037C23.7833 40.8971 25.6443 41.4763 28.3201 41.8512C29.5867 42.0287 33.1814 42.0533 34.4244 41.8931C38.736 41.3372 41.4784 40.0382 41.9363 38.3353C41.9885 38.1411 42.0098 34.5043 41.9958 28.1842L41.974 18.3357L41.7306 17.8956C41.4454 17.38 40.9529 16.9228 40.2097 16.4835C38.8382 15.673 36.9603 15.1704 33.9111 14.7978C33.5559 14.7544 33.4741 14.7139 33.4467 14.568C33.1253 12.8586 33.008 12.356 32.7378 11.5321C30.788 5.58524 25.7023 1.23727 19.4484 0.170351C18.5242 0.0127213 15.8289 -0.0566424 14.935 0.0541423ZM18.2822 1.45153C21.3753 1.78898 24.3237 3.02536 26.6159 4.94618L27.1774 5.41685L21.8566 10.7462L16.5357 16.0756H8.96692H1.39815L1.44139 15.6852C1.703 13.3233 2.1403 11.7106 2.97347 10.035C4.29612 7.37506 6.42469 5.05556 8.92237 3.55257C11.6592 1.90568 15.1869 1.11383 18.2822 1.45153ZM28.6951 7.0395C29.7561 8.33103 30.7965 10.1791 31.3339 11.7263C31.5836 12.4453 32.0036 14.1869 32.0036 14.5034C32.0036 14.6647 31.9601 14.6785 31.4497 14.6788C31.1451 14.679 30.3788 14.7175 29.747 14.7644C25.3433 15.0912 22.1989 16.2557 21.2919 17.8956L21.0485 18.3357L21.0075 24.9926L20.9665 31.6496L20.3921 31.791C19.7375 31.9523 18.1877 32.1838 17.7633 32.1838H17.4789V24.6436V17.1034L22.7921 11.7817C25.7143 8.85479 28.1309 6.46002 28.1622 6.46002C28.1935 6.46002 28.4333 6.72079 28.6951 7.0395ZM34.5417 16.2825C38.1669 16.736 40.8606 17.9809 40.5862 19.0759C40.4079 19.7871 38.7307 20.6667 36.599 21.1668C33.6135 21.8671 29.0951 21.8481 26.2186 21.123C24.1888 20.6114 22.6065 19.755 22.4363 19.0759C22.3131 18.5841 22.7988 18.0502 23.8485 17.5234C25.3177 16.7862 27.1465 16.3777 30.1162 16.1236C30.849 16.0609 33.5437 16.1577 34.5417 16.2825ZM16.0839 24.8283V32.1838H15.7867C15.3429 32.1838 13.8302 31.9488 13.1264 31.7705C11.4424 31.3439 9.6898 30.5638 8.24898 29.5992C4.44104 27.0501 1.94311 22.8863 1.49186 18.3357C1.45149 17.9289 1.43384 17.5682 1.45264 17.5344C1.47143 17.5005 4.77108 17.4727 8.78533 17.4727H16.0839V24.8283ZM24.2768 21.993C28.8603 23.6683 36.3599 23.397 40.0126 21.4238L40.62 21.0957V23.2591C40.62 25.3776 40.6161 25.4274 40.4354 25.6594C40.1184 26.0662 39.8641 26.2515 39.1019 26.6317C38.039 27.1618 36.5126 27.5725 34.5885 27.8462C33.5972 27.9872 29.4245 27.9872 28.434 27.8461C25.4102 27.4155 23.2329 26.5974 22.5761 25.645C22.4103 25.4045 22.4025 25.2982 22.4025 23.2446V21.0957L23.01 21.4238C23.3441 21.6043 23.9142 21.8604 24.2768 21.993ZM24.6182 28.4237C25.6777 28.7642 26.514 28.959 27.7775 29.1594C28.7794 29.3183 29.2517 29.342 31.4702 29.3442C33.509 29.3463 34.2096 29.3174 34.9988 29.199C37.0854 28.886 38.5905 28.4599 39.8562 27.8242L40.6275 27.4368L40.6032 29.655L40.579 31.8731L40.1601 32.2587C38.7193 33.5851 34.8468 34.422 30.7317 34.2962C27.0605 34.1841 24.0438 33.3916 22.8334 32.2212L22.4025 31.8047V29.6226V27.4406L23.1616 27.8201C23.579 28.0289 24.2345 28.3005 24.6182 28.4237ZM22.8807 33.9835C24.8419 35.1416 28.4691 35.8007 32.2817 35.6918C35.4708 35.6008 37.9891 35.0798 39.8961 34.1165L40.62 33.7509V35.8658C40.62 37.9737 40.6193 37.9817 40.4194 38.2764C40.0596 38.8066 39.068 39.3633 37.7281 39.7872C33.1759 41.2274 26.1795 40.7784 23.2762 38.8597C22.3831 38.2695 22.4032 38.3385 22.4029 35.8615C22.4027 34.6976 22.4194 33.7453 22.44 33.7453C22.4606 33.7453 22.6589 33.8524 22.8807 33.9835Z" fill="#33C4F2"/>
</svg>
