<svg width="42" height="42" viewBox="0 0 42 42" fill="none" xmlns="http://www.w3.org/2000/svg">
<path fill-rule="evenodd" clip-rule="evenodd" d="M14.7188 0.0561985C13.5954 0.224057 12.6171 0.755298 11.8532 1.61232C11.0355 2.52968 10.6556 3.57622 10.6556 4.91077V5.69769H9.14583C8.31558 5.69769 7.41934 5.73879 7.15435 5.7891C5.77764 6.05015 4.47353 7.14316 3.72824 8.66061C2.93791 10.2696 3.00121 8.90671 3.00121 24.3189C3.00121 37.3178 3.00908 37.9971 3.16584 38.5085C3.67058 40.1555 4.84569 41.3306 6.49267 41.8354C7.00082 41.9911 7.58532 42 17.3252 42H27.6205L28.251 41.8017C29.8227 41.3072 31.0524 40.0084 31.4711 38.4008C31.5444 38.1193 31.6044 37.5394 31.6044 37.1122V36.3355L33.462 36.2925C34.8787 36.2598 35.4365 36.2128 35.812 36.0948C37.4269 35.5871 38.5954 34.4066 39.0941 32.7789C39.251 32.2672 39.2588 31.575 39.2588 18.1416C39.2588 4.70826 39.251 4.01606 39.0941 3.50434C38.5965 1.88062 37.4596 0.728709 35.812 0.179027C35.3471 0.0238801 34.7586 0.0139428 25.2481 0.00131984C19.7088 -0.00611071 14.9706 0.018598 14.7188 0.0561985ZM35.4522 2.08832C36.0377 2.2774 36.7256 2.88357 37.0479 3.49467L37.2892 3.95196V18.1416V32.3313L37.0783 32.7342C36.7909 33.2831 36.3038 33.7766 35.7673 34.0624L35.3197 34.3009H24.9348H14.5499L14.1654 34.0956C13.5727 33.7791 13.1026 33.3051 12.8292 32.7486L12.5804 32.2418L12.5569 18.3251C12.5309 2.94901 12.4979 3.87721 13.0989 3.085C13.423 2.65779 14.1041 2.16084 14.5378 2.03514C14.698 1.98877 19.1481 1.95036 24.9021 1.94571C34.1208 1.93837 35.0257 1.95054 35.4522 2.08832ZM16.9562 5.82634C16.8024 5.89322 16.6111 6.04165 16.5309 6.15606C16.3439 6.4232 16.344 6.94191 16.5312 7.20914C16.8585 7.67646 16.688 7.66724 24.9855 7.66724C33.5346 7.66724 33.1448 7.69401 33.4327 7.0873C33.5104 6.92356 33.5739 6.74146 33.5739 6.68247C33.5739 6.62347 33.5104 6.44138 33.4327 6.27763C33.1447 5.67057 33.5378 5.69734 24.966 5.70118C18.6548 5.70405 17.1844 5.72706 16.9562 5.82634ZM10.6556 19.9133C10.6556 30.5383 10.6735 32.228 10.7906 32.6777C11.2032 34.262 12.3989 35.5408 13.9615 36.0692C14.5485 36.2675 14.5683 36.2681 22.1476 36.2954L29.7454 36.3228L29.7091 37.1521C29.6796 37.8272 29.6272 38.0747 29.4273 38.4832C29.1575 39.0348 28.6863 39.5092 28.0946 39.8252L27.7101 40.0305H17.3252H6.9403L6.483 39.7892C6.23153 39.6565 5.84514 39.347 5.62437 39.1015C4.86592 38.2579 4.92008 39.4585 4.94694 24.0947L4.97075 10.4873L5.34031 9.72631C5.78525 8.81011 6.22374 8.28532 6.83905 7.93241L7.2984 7.66894L8.97699 7.66805L10.6556 7.66724V19.9133ZM16.9562 11.5559C16.8024 11.6228 16.6111 11.7712 16.5309 11.8856C16.3439 12.1528 16.344 12.6715 16.5312 12.9387C16.8585 13.406 16.688 13.3968 24.9855 13.3968C33.5346 13.3968 33.1448 13.4236 33.4327 12.8169C33.5104 12.6531 33.5739 12.471 33.5739 12.4121C33.5739 12.3531 33.5104 12.171 33.4327 12.0072C33.1447 11.4002 33.5378 11.4269 24.966 11.4308C18.6548 11.4336 17.1844 11.4566 16.9562 11.5559ZM16.9562 17.2855C16.8024 17.3524 16.6111 17.5008 16.5309 17.6152C16.3439 17.8824 16.344 18.4011 16.5312 18.6683C16.8585 19.1356 16.688 19.1264 24.9855 19.1264C33.5346 19.1264 33.1448 19.1532 33.4327 18.5465C33.5104 18.3827 33.5739 18.2006 33.5739 18.1416C33.5739 18.0826 33.5104 17.9005 33.4327 17.7368C33.1447 17.1297 33.5378 17.1565 24.966 17.1604C18.6548 17.1632 17.1844 17.1862 16.9562 17.2855ZM16.9562 23.0151C16.8024 23.082 16.6111 23.2304 16.5309 23.3448C16.3439 23.612 16.344 24.1307 16.5312 24.3979C16.8585 24.8652 16.688 24.856 24.9855 24.856C33.5346 24.856 33.1448 24.8828 33.4327 24.2761C33.5104 24.1123 33.5739 23.9302 33.5739 23.8712C33.5739 23.8122 33.5104 23.6301 33.4327 23.4664C33.1447 22.8593 33.5378 22.8861 24.966 22.8899C18.6548 22.8928 17.1844 22.9158 16.9562 23.0151ZM16.9562 28.7447C16.8024 28.8116 16.6111 28.96 16.5309 29.0744C16.3439 29.3415 16.344 29.8603 16.5312 30.1275C16.8585 30.5948 16.688 30.5856 24.9855 30.5856C33.5346 30.5856 33.1448 30.6124 33.4327 30.0056C33.5104 29.8419 33.5739 29.6598 33.5739 29.6008C33.5739 29.5418 33.5104 29.3597 33.4327 29.196C33.1447 28.5889 33.5378 28.6157 24.966 28.6195C18.6548 28.6224 17.1844 28.6454 16.9562 28.7447Z" fill="#33C4F2"/>
</svg>
