<svg width="12" height="20" viewBox="0 0 12 20" fill="none" xmlns="http://www.w3.org/2000/svg">
<path d="M7.17178 20H3.65616C3.33229 20 3.07022 19.7379 3.07022 19.4141V11.7188H1.31241C0.988541 11.7188 0.726471 11.4567 0.726471 11.1328V7.61719C0.726471 7.29332 0.988541 7.03125 1.31241 7.03125H3.07022V4.10156C3.07022 1.8402 4.91042 0 7.17178 0H10.6874C11.0113 0 11.2733 0.26207 11.2733 0.585938V4.10156C11.2733 4.42543 11.0113 4.6875 10.6874 4.6875H7.75772V7.03125H10.6874C10.8596 7.03125 11.0233 7.1068 11.1343 7.2384C11.2458 7.37 11.2939 7.5434 11.2653 7.71332L10.6794 11.2289C10.6324 11.5116 10.3881 11.7188 10.1014 11.7188H7.75768V19.4141C7.75772 19.7379 7.49565 20 7.17178 20Z" fill="#33C4F2"/>
</svg>
