<?xml version="1.0" encoding="UTF-8"?>
<svg id="Layer_2" data-name="Layer 2" xmlns="http://www.w3.org/2000/svg" viewBox="0 0 103.14 30.58">
  <defs>
    <style>
      .cls-1 {
        fill: #008bf1;
      }

      .cls-2 {
        fill: #000f1a;
      }
    </style>
  </defs>
  <g id="Layer_1-2" data-name="Layer 1">
    <path class="cls-2" d="M30.76,7.26c-.23-.35-.44-.84-.63-1.45-.19-.61-.29-1.26-.29-1.94,0-1.26,.27-2.16,.82-2.71,.58-.55,1.32-.82,2.23-.82h21.09c.23,.35,.44,.84,.63,1.45,.19,.61,.29,1.26,.29,1.94,0,1.26-.29,2.16-.87,2.71-.55,.55-1.27,.82-2.18,.82h-5.37V29.61c-.35,.1-.92,.19-1.69,.29-.74,.1-1.48,.15-2.23,.15s-1.4-.06-1.98-.19c-.55-.1-1.02-.29-1.4-.58-.39-.29-.68-.69-.87-1.21-.19-.52-.29-1.19-.29-2.03V7.26h-7.26Zm37.16,23.32c-1.9,0-3.68-.26-5.32-.77-1.61-.55-3.03-1.35-4.26-2.42-1.19-1.06-2.14-2.4-2.85-4.02-.68-1.61-1.02-3.5-1.02-5.66s.34-3.95,1.02-5.47c.71-1.55,1.63-2.81,2.76-3.77,1.13-1,2.42-1.73,3.87-2.18,1.45-.48,2.94-.73,4.45-.73,1.71,0,3.26,.26,4.64,.77,1.42,.52,2.63,1.23,3.63,2.13,1.03,.9,1.82,1.98,2.37,3.24,.58,1.26,.87,2.63,.87,4.11,0,1.1-.31,1.94-.92,2.52-.61,.58-1.47,.95-2.56,1.11l-11.95,1.79c.35,1.06,1.08,1.87,2.18,2.42,1.1,.52,2.35,.77,3.77,.77,1.32,0,2.56-.16,3.73-.48,1.19-.35,2.16-.76,2.9-1.21,.52,.32,.95,.77,1.31,1.35,.35,.58,.53,1.19,.53,1.84,0,1.45-.68,2.53-2.03,3.24-1.03,.55-2.19,.92-3.48,1.11-1.29,.19-2.5,.29-3.63,.29Zm-1.35-19.01c-.77,0-1.45,.13-2.03,.39-.55,.26-1,.6-1.35,1.02-.35,.39-.63,.84-.82,1.35-.16,.48-.26,.98-.29,1.5l8.27-1.35c-.1-.65-.45-1.29-1.06-1.94-.61-.65-1.52-.97-2.71-.97Zm20.6,18.39c-1.39,0-2.48-.4-3.29-1.21-.81-.81-1.21-1.9-1.21-3.29V.44c.35-.06,.92-.15,1.69-.24,.77-.13,1.52-.19,2.23-.19s1.39,.06,1.94,.19c.58,.1,1.06,.29,1.45,.58,.39,.29,.68,.69,.87,1.21,.19,.52,.29,1.19,.29,2.03V23.13h11.08c.22,.35,.44,.84,.63,1.45,.19,.58,.29,1.19,.29,1.84,0,1.29-.27,2.21-.82,2.76-.55,.52-1.27,.77-2.18,.77h-12.97Z"/>
    <path class="cls-1" d="M26.13,18.97c0,1.74-.31,3.34-.92,4.79-.58,1.42-1.44,2.64-2.56,3.68-1.13,1-2.5,1.77-4.11,2.32-1.61,.55-3.44,.82-5.47,.82s-3.85-.27-5.47-.82c-1.61-.55-2.98-1.32-4.11-2.32-1.13-1.03-2-2.26-2.61-3.68-.58-1.45-.87-3.05-.87-4.79V.48c.35-.06,.92-.15,1.69-.24C2.47,.11,3.21,.05,3.92,.05s1.39,.06,1.94,.19c.58,.1,1.06,.29,1.45,.58,.39,.29,.68,.69,.87,1.21,.19,.52,.29,1.19,.29,2.03v14.76c0,1.55,.42,2.76,1.26,3.63,.87,.87,1.98,1.31,3.34,1.31s2.5-.44,3.34-1.31c.84-.87,1.26-2.08,1.26-3.63V.48c.35-.06,.92-.15,1.69-.24,.77-.13,1.52-.19,2.23-.19s1.39,.06,1.94,.19c.58,.1,1.06,.29,1.45,.58,.39,.29,.68,.69,.87,1.21,.19,.52,.29,1.19,.29,2.03v14.9Z"/>
  </g>
</svg>